<svg width="56" height="84" viewBox="0 0 56 84" fill="none" xmlns="http://www.w3.org/2000/svg">

<g id="6H">
<rect width="56" height="84" rx="4" fill="#972438"/>
<path d="M14.4456 18.6362C14.3244 18.9188 13.8347 18.9167 13.7164 18.6329C13.6038 18.3631 13.477 18.1011 13.3358 17.847C13.0151 17.2697 12.3946 16.3731 11.4743 15.1572C10.7994 14.2647 10.3838 13.6986 10.2276 13.4588C9.97107 13.0683 9.78561 12.71 9.67127 12.3837C9.55693 12.0574 9.49976 11.7269 9.49976 11.3922C9.49976 10.7731 9.70613 10.2544 10.1189 9.83605C10.5316 9.41774 11.042 9.20857 11.65 9.20856C12.2635 9.20857 12.7962 9.4261 13.248 9.86115C13.4091 10.0144 13.5559 10.2033 13.6882 10.4278C13.8378 10.6815 14.2955 10.6742 14.4409 10.4182C14.5628 10.2036 14.7006 10.0207 14.8543 9.86952C15.3173 9.42331 15.8527 9.2002 16.4607 9.2002C17.0631 9.2002 17.5735 9.40797 17.9918 9.8235C18.4101 10.239 18.6193 10.7341 18.6193 11.3086C18.6193 11.8106 18.4966 12.3335 18.2511 12.8773C18.0057 13.4211 17.5316 14.1337 16.8288 15.0149C15.9141 16.1695 15.2476 17.1177 14.8292 17.8596C14.6867 18.1132 14.5588 18.3721 14.4456 18.6362Z" fill="white"/>
<path d="M41.7266 41.6758H42.0059V45.0488H41.7266C39.9219 45.0488 38.4395 45.3926 37.2793 46.0801C36.1335 46.7533 35.2383 47.6628 34.5938 48.8086C33.9635 49.9401 33.5267 51.2148 33.2832 52.6328C33.0397 54.0508 32.918 55.4902 32.918 56.9512V61.5488C32.918 62.9381 33.0469 64.1699 33.3047 65.2441C33.5768 66.304 33.9277 67.1992 34.3574 67.9297C34.8014 68.6602 35.2956 69.2116 35.8398 69.584C36.3984 69.9564 36.9642 70.1426 37.5371 70.1426C38.2676 70.1426 38.9121 69.9707 39.4707 69.627C40.0436 69.2689 40.5163 68.7747 40.8887 68.1445C41.2754 67.5 41.569 66.7409 41.7695 65.8672C41.9701 64.9935 42.0703 64.0339 42.0703 62.9883C42.0703 62.0573 41.9772 61.1621 41.791 60.3027C41.6191 59.429 41.3542 58.6556 40.9961 57.9824C40.638 57.2949 40.1797 56.7578 39.6211 56.3711C39.0768 55.9701 38.4251 55.7695 37.666 55.7695C36.8066 55.7695 36.0046 56.0417 35.2598 56.5859C34.5293 57.1159 33.9277 57.8177 33.4551 58.6914C32.9824 59.5508 32.7031 60.4889 32.6172 61.5059L30.6621 61.4844C30.8626 59.8802 31.1992 58.5124 31.6719 57.3809C32.1445 56.235 32.7174 55.304 33.3906 54.5879C34.0781 53.8574 34.8372 53.3275 35.668 52.998C36.4987 52.6543 37.3724 52.4824 38.2891 52.4824C39.6211 52.4824 40.7598 52.776 41.7051 53.3633C42.6647 53.9505 43.4453 54.7383 44.0469 55.7266C44.6628 56.7005 45.1139 57.8034 45.4004 59.0352C45.6869 60.2526 45.8301 61.5059 45.8301 62.7949C45.8301 64.2702 45.651 65.6523 45.293 66.9414C44.9492 68.2305 44.4336 69.362 43.7461 70.3359C43.0586 71.3099 42.1921 72.069 41.1465 72.6133C40.1152 73.1576 38.9121 73.4297 37.5371 73.4297C36.0762 73.4297 34.8158 73.0859 33.7559 72.3984C32.696 71.6966 31.8151 70.7656 31.1133 69.6055C30.4258 68.4453 29.9173 67.1562 29.5879 65.7383C29.2585 64.3203 29.0938 62.8809 29.0938 61.4199V59.5508C29.0938 57.3451 29.2513 55.1823 29.5664 53.0625C29.8815 50.9427 30.4759 49.0234 31.3496 47.3047C32.2376 45.5859 33.5124 44.2181 35.1738 43.2012C36.8496 42.1842 39.0339 41.6758 41.7266 41.6758Z" fill="white"/>
</g>
</svg>
