<svg width="56" height="84" viewBox="0 0 56 84" fill="none" xmlns="http://www.w3.org/2000/svg">


<g id="TH">
<rect width="56" height="84" rx="4" fill="#972438"/>
<path d="M14.4456 18.6362C14.3244 18.9188 13.8347 18.9167 13.7164 18.6329C13.6038 18.3631 13.477 18.1011 13.3358 17.847C13.0151 17.2697 12.3946 16.3731 11.4743 15.1572C10.7994 14.2647 10.3838 13.6986 10.2276 13.4588C9.97107 13.0683 9.78561 12.71 9.67127 12.3837C9.55693 12.0574 9.49976 11.7269 9.49976 11.3922C9.49976 10.7731 9.70613 10.2544 10.1189 9.83605C10.5316 9.41774 11.042 9.20857 11.65 9.20856C12.2635 9.20857 12.7962 9.4261 13.248 9.86115C13.4091 10.0144 13.5559 10.2033 13.6882 10.4278C13.8378 10.6815 14.2955 10.6742 14.4409 10.4182C14.5628 10.2036 14.7006 10.0207 14.8543 9.86952C15.3173 9.42331 15.8527 9.2002 16.4607 9.2002C17.0631 9.2002 17.5735 9.40797 17.9918 9.8235C18.4101 10.239 18.6193 10.7341 18.6193 11.3086C18.6193 11.8106 18.4966 12.3335 18.2511 12.8773C18.0057 13.4211 17.5316 14.1337 16.8288 15.0149C15.9141 16.1695 15.2476 17.1177 14.8292 17.8596C14.6867 18.1132 14.5588 18.3721 14.4456 18.6362Z" fill="white"/>
<path d="M22.5176 41.5469V73H18.7148V46.5098L12.1406 49.4316V45.8438L21.9375 41.5469H22.5176Z" fill="white"/>
<path d="M45.0564 54.8672V59.6367C45.0564 62.2005 44.8559 64.3633 44.4548 66.125C44.0681 67.8867 43.5095 69.3047 42.7791 70.3789C42.0486 71.4531 41.1677 72.2337 40.1365 72.7207C39.1196 73.1934 37.9737 73.4297 36.699 73.4297C35.6964 73.4297 34.7582 73.2793 33.8845 72.9785C33.0252 72.6777 32.2517 72.1979 31.5642 71.5391C30.8767 70.8659 30.2895 69.9922 29.8025 68.918C29.3155 67.8438 28.9431 66.5404 28.6853 65.0078C28.4275 63.4753 28.2986 61.6849 28.2986 59.6367V54.8672C28.2986 52.3034 28.4991 50.1549 28.9002 48.4219C29.3012 46.6888 29.867 45.2995 30.5974 44.2539C31.3422 43.194 32.2231 42.4349 33.24 41.9766C34.2712 41.5182 35.4171 41.2891 36.6775 41.2891C37.6944 41.2891 38.6326 41.4395 39.492 41.7402C40.3657 42.0267 41.1391 42.4922 41.8123 43.1367C42.4998 43.7669 43.087 44.612 43.574 45.6719C44.061 46.7174 44.4262 47.9993 44.6697 49.5176C44.9275 51.0358 45.0564 52.819 45.0564 54.8672ZM41.2752 60.2812V54.2012C41.2752 52.7975 41.2107 51.5658 41.0818 50.5059C40.9529 49.4316 40.7667 48.515 40.5232 47.7559C40.2797 46.9967 39.9646 46.3809 39.5779 45.9082C39.2055 45.4355 38.7758 45.0918 38.2888 44.877C37.8018 44.6478 37.2647 44.5332 36.6775 44.5332C35.947 44.5332 35.2953 44.7122 34.7224 45.0703C34.1638 45.4141 33.684 45.9655 33.283 46.7246C32.8962 47.4837 32.6026 48.4792 32.4021 49.7109C32.2016 50.9427 32.1013 52.4395 32.1013 54.2012V60.2812C32.1013 61.6849 32.1658 62.9238 32.2947 63.998C32.4379 65.0723 32.6313 66.0033 32.8748 66.791C33.1326 67.5645 33.4477 68.2018 33.8201 68.7031C34.1925 69.2044 34.6222 69.5768 35.1091 69.8203C35.5961 70.0495 36.1261 70.1641 36.699 70.1641C37.4581 70.1641 38.117 69.9779 38.6755 69.6055C39.2485 69.2331 39.7283 68.653 40.115 67.8652C40.5017 67.0632 40.7882 66.0391 40.9744 64.793C41.1749 63.5326 41.2752 62.0286 41.2752 60.2812Z" fill="white"/>
</g>
</svg>
