<svg width="56" height="84" viewBox="0 0 56 84" fill="none" xmlns="http://www.w3.org/2000/svg">

<g id="3D">
<rect width="56" height="84" rx="4" fill="#BF901D"/>
<path d="M14.5286 8.88359C14.2857 8.50544 13.7267 8.50544 13.4838 8.88359C12.4142 10.549 11.2271 12.1378 9.946 13.6468C9.75257 13.8747 9.75267 14.2096 9.9465 14.4372C11.2251 15.938 12.4221 17.5163 13.4766 19.1832C13.7205 19.5688 14.2919 19.5688 14.5358 19.1832C15.5903 17.5163 16.7873 15.938 18.0659 14.4372C18.2597 14.2096 18.2598 13.8747 18.0664 13.6468C16.7853 12.1378 15.5982 10.549 14.5286 8.88359Z" fill="white"/>
<path d="M33.6487 55.4043H36.0979C37.1864 55.4043 38.0888 55.1751 38.8049 54.7168C39.5211 54.2441 40.051 53.6068 40.3948 52.8047C40.7528 51.9883 40.9319 51.0716 40.9319 50.0547C40.9319 48.8516 40.7743 47.8418 40.4592 47.0254C40.1441 46.209 39.6715 45.5931 39.0413 45.1777C38.4254 44.7624 37.6448 44.5547 36.6995 44.5547C35.8114 44.5547 35.038 44.7767 34.3792 45.2207C33.7203 45.6504 33.2118 46.2663 32.8538 47.0684C32.4957 47.8704 32.3167 48.8158 32.3167 49.9043H28.5354C28.5354 48.3145 28.8648 46.8678 29.5237 45.5645C30.1969 44.2611 31.1422 43.2227 32.3596 42.4492C33.5914 41.6758 35.038 41.2891 36.6995 41.2891C38.2893 41.2891 39.6858 41.6257 40.8889 42.2988C42.092 42.9577 43.0302 43.946 43.7034 45.2637C44.3909 46.5671 44.7346 48.1927 44.7346 50.1406C44.7346 50.9284 44.5842 51.7734 44.2834 52.6758C43.997 53.5638 43.5315 54.3945 42.887 55.168C42.2568 55.9414 41.426 56.5788 40.3948 57.0801C39.3778 57.5671 38.1318 57.8105 36.6565 57.8105H33.6487V55.4043ZM33.6487 58.6699V56.2852H36.6565C38.4039 56.2852 39.829 56.5215 40.9319 56.9941C42.0348 57.4668 42.887 58.097 43.4885 58.8848C44.0901 59.6725 44.5055 60.5391 44.7346 61.4844C44.9781 62.4154 45.0999 63.3464 45.0999 64.2773C45.0999 65.7383 44.885 67.0345 44.4553 68.166C44.04 69.2975 43.4456 70.2572 42.6721 71.0449C41.913 71.8327 41.025 72.4271 40.0081 72.8281C38.9911 73.2292 37.8811 73.4297 36.678 73.4297C35.5035 73.4297 34.415 73.2363 33.4124 72.8496C32.4097 72.4629 31.5289 71.9043 30.7698 71.1738C30.0107 70.429 29.4163 69.5195 28.9866 68.4453C28.5712 67.3568 28.3635 66.1178 28.3635 64.7285H32.1663C32.1663 65.8171 32.3453 66.7695 32.7034 67.5859C33.0614 68.4023 33.5771 69.0397 34.2502 69.498C34.9234 69.9421 35.7327 70.1641 36.678 70.1641C37.6233 70.1641 38.4397 69.9564 39.1272 69.541C39.8147 69.1113 40.3446 68.4668 40.717 67.6074C41.1038 66.748 41.2971 65.6667 41.2971 64.3633C41.2971 63.0599 41.0823 61.9928 40.6526 61.1621C40.2372 60.3171 39.6428 59.694 38.8694 59.293C38.0959 58.8776 37.1721 58.6699 36.0979 58.6699H33.6487Z" fill="white"/>
</g>

</svg>
