<svg width="56" height="84" viewBox="0 0 56 84" fill="none" xmlns="http://www.w3.org/2000/svg">


<g id="JD">
<rect width="56" height="84" rx="4" fill="#BF901D"/>
<path d="M14.5286 8.88359C14.2857 8.50544 13.7267 8.50544 13.4838 8.88359C12.4142 10.549 11.2271 12.1378 9.946 13.6468C9.75257 13.8747 9.75267 14.2096 9.9465 14.4372C11.2251 15.938 12.4221 17.5163 13.4766 19.1832C13.7205 19.5688 14.2919 19.5688 14.5358 19.1832C15.5903 17.5163 16.7873 15.938 18.0659 14.4372C18.2597 14.2096 18.2598 13.8747 18.0664 13.6468C16.7853 12.1378 15.5982 10.549 14.5286 8.88359Z" fill="white"/>
<path d="M40.9102 63.8691V41.7188H44.8418V63.8691C44.8418 65.9316 44.4837 67.6719 43.7676 69.0898C43.0514 70.5078 42.056 71.5892 40.7812 72.334C39.5208 73.0645 38.0671 73.4297 36.4199 73.4297C34.8014 73.4297 33.3548 73.1003 32.0801 72.4414C30.8053 71.7826 29.8027 70.78 29.0723 69.4336C28.3561 68.0872 27.998 66.39 27.998 64.3418H31.9512C31.9512 65.6595 32.1445 66.7409 32.5312 67.5859C32.9323 68.431 33.4694 69.054 34.1426 69.4551C34.8158 69.8561 35.5749 70.0566 36.4199 70.0566C37.2793 70.0566 38.0456 69.8275 38.7188 69.3691C39.3919 68.8965 39.9219 68.2018 40.3086 67.2852C40.7096 66.3542 40.9102 65.2155 40.9102 63.8691Z" fill="white"/>
</g>
</svg>
