<svg width="56" height="84" viewBox="0 0 56 84" fill="none" xmlns="http://www.w3.org/2000/svg">


<g id="JS">
<rect width="56" height="84" rx="4" fill="#2C407B"/>
<path d="M14.4594 8.81471C14.3274 8.52856 13.7837 8.52856 13.6517 8.81471C13.5485 9.03848 13.4326 9.25173 13.304 9.45412C12.9658 9.98649 12.3635 10.6431 11.4961 11.4291C10.6286 12.2151 10.0785 12.8174 9.8468 13.237C9.61508 13.6566 9.50025 14.0825 9.50024 14.5147C9.50025 15.1159 9.70067 15.617 10.1015 16.0178C10.5023 16.4186 10.9909 16.619 11.567 16.619C12.2107 16.619 12.7634 16.3258 13.2157 15.9058C13.4404 15.6971 13.8577 15.8525 13.801 16.154C13.7253 16.5563 13.6169 16.9049 13.4752 17.1994C13.1965 17.7788 12.7697 18.2582 12.1934 18.6399C11.8195 18.8875 11.1568 19.1055 10.2075 19.2947C10.1406 19.3081 10.0873 19.3591 10.0718 19.4256V19.4256C10.0464 19.534 10.1288 19.6378 10.2402 19.6378H14.0514H17.8668C17.9782 19.6378 18.0605 19.534 18.0352 19.4256V19.4256C18.0196 19.3591 17.9663 19.3081 17.8994 19.2947C16.9501 19.1055 16.2874 18.8875 15.9136 18.6399C15.3372 18.2582 14.9105 17.7788 14.6318 17.1994C14.4905 16.9057 14.3822 16.5583 14.3065 16.1575C14.2496 15.8561 14.6674 15.6999 14.8927 15.9079C15.3465 16.3269 15.9011 16.619 16.5441 16.619C17.1203 16.619 17.6088 16.4186 18.0096 16.0178C18.4105 15.617 18.6109 15.1159 18.6109 14.5147C18.6109 14.0825 18.4961 13.6566 18.2643 13.237C18.0326 12.8174 17.4825 12.2151 16.6151 11.4291C15.7476 10.6431 15.1453 9.98649 14.8071 9.45412C14.6786 9.25173 14.5626 9.03848 14.4594 8.81471Z" fill="white"/>
<path d="M40.9102 63.8691V41.7188H44.8418V63.8691C44.8418 65.9316 44.4837 67.6719 43.7676 69.0898C43.0514 70.5078 42.056 71.5892 40.7812 72.334C39.5208 73.0645 38.0671 73.4297 36.4199 73.4297C34.8014 73.4297 33.3548 73.1003 32.0801 72.4414C30.8053 71.7826 29.8027 70.78 29.0723 69.4336C28.3561 68.0872 27.998 66.39 27.998 64.3418H31.9512C31.9512 65.6595 32.1445 66.7409 32.5312 67.5859C32.9323 68.431 33.4694 69.054 34.1426 69.4551C34.8158 69.8561 35.5749 70.0566 36.4199 70.0566C37.2793 70.0566 38.0456 69.8275 38.7188 69.3691C39.3919 68.8965 39.9219 68.2018 40.3086 67.2852C40.7096 66.3542 40.9102 65.2155 40.9102 63.8691Z" fill="white"/>
</g>
</svg>
