<svg width="56" height="84" viewBox="0 0 56 84" fill="none" xmlns="http://www.w3.org/2000/svg">


<g id="KC">
<rect width="56" height="84" rx="4" fill="#3B7E15"/>
<path fill-rule="evenodd" clip-rule="evenodd" d="M14.9792 13.0263C14.686 13.1683 14.45 13.4392 14.45 13.765V14.2601C14.45 14.365 14.535 14.45 14.6399 14.45C14.7302 14.45 14.8072 14.3861 14.8313 14.299C15.0943 13.3482 15.9654 12.65 17 12.65C18.2428 12.65 19.25 13.6574 19.25 14.9C19.25 16.1426 18.2428 17.15 17 17.15C16.1921 17.15 15.484 16.7244 15.0872 16.0851C14.8676 15.7314 14.5375 15.419 14.1365 15.36C14.1904 16.026 14.3186 16.57 14.5214 16.9916C14.7731 17.5147 15.1586 17.9474 15.6789 18.2923C16.0166 18.5157 16.6148 18.7128 17.472 18.8836C17.5324 18.8957 17.5805 18.9417 17.5946 19.0017C17.6174 19.0997 17.5431 19.1934 17.4425 19.1934H13.9973H10.556C10.4554 19.1934 10.381 19.0997 10.4039 19.0017C10.4179 18.9417 10.4661 18.8957 10.5265 18.8836C11.3836 18.7128 11.9819 18.5157 12.3196 18.2923C12.8399 17.9474 13.2254 17.5147 13.4771 16.9916C13.6799 16.5701 13.808 16.0261 13.8619 15.3602C13.4616 15.4199 13.1321 15.7319 12.9128 16.0851C12.516 16.7244 11.8079 17.15 11 17.15C9.75723 17.15 8.75 16.1426 8.75 14.9C8.75 13.6574 9.75723 12.65 11 12.65C12.0346 12.65 12.9057 13.3482 13.1687 14.299C13.1928 14.3861 13.2698 14.45 13.3601 14.45C13.465 14.45 13.55 14.365 13.55 14.2601V13.765C13.55 13.4392 13.314 13.1683 13.0208 13.0263C12.2686 12.6622 11.75 11.8917 11.75 11C11.75 9.75737 12.7572 8.75 14 8.75C15.2428 8.75 16.25 9.75737 16.25 11C16.25 11.8917 15.7314 12.6622 14.9792 13.0263Z" fill="white"/>
<path d="M31.3066 41.7188V73H27.3535V41.7188H31.3066ZM47.0332 41.7188L36.2695 56.3066L29.9746 63.8906L29.2656 59.4648L33.8848 53.4062L42.3066 41.7188H47.0332ZM43.1016 73L33.8848 57.7461L36.2266 54.459L47.8066 73H43.1016Z" fill="white"/>
</g>
</svg>
