<svg width="56" height="84" viewBox="0 0 56 84" fill="none" xmlns="http://www.w3.org/2000/svg">

<g id="2H">
<rect width="56" height="84" rx="4" fill="#972438"/>
<path d="M14.4456 18.6362C14.3244 18.9188 13.8347 18.9167 13.7164 18.6329C13.6038 18.3631 13.477 18.1011 13.3358 17.847C13.0151 17.2697 12.3946 16.3731 11.4743 15.1572C10.7994 14.2647 10.3838 13.6986 10.2276 13.4588C9.97107 13.0683 9.78561 12.71 9.67127 12.3837C9.55693 12.0574 9.49976 11.7269 9.49976 11.3922C9.49976 10.7731 9.70613 10.2544 10.1189 9.83605C10.5316 9.41774 11.042 9.20857 11.65 9.20856C12.2635 9.20857 12.7962 9.4261 13.248 9.86115C13.4091 10.0144 13.5559 10.2033 13.6882 10.4278C13.8378 10.6815 14.2955 10.6742 14.4409 10.4182C14.5628 10.2036 14.7006 10.0207 14.8543 9.86952C15.3173 9.42331 15.8527 9.2002 16.4607 9.2002C17.0631 9.2002 17.5735 9.40797 17.9918 9.8235C18.4101 10.239 18.6193 10.7341 18.6193 11.3086C18.6193 11.8106 18.4966 12.3335 18.2511 12.8773C18.0057 13.4211 17.5316 14.1337 16.8288 15.0149C15.9141 16.1695 15.2476 17.1177 14.8292 17.8596C14.6867 18.1132 14.5588 18.3721 14.4456 18.6362Z" fill="white"/>
<path d="M46.2598 69.7344V73H28.7715V70.1426L37.3867 58.7344C38.4466 57.3307 39.2559 56.1419 39.8145 55.168C40.373 54.1797 40.7598 53.2988 40.9746 52.5254C41.1895 51.7376 41.2969 50.9355 41.2969 50.1191C41.2969 49.0879 41.1322 48.1569 40.8027 47.3262C40.4733 46.4811 39.9935 45.8079 39.3633 45.3066C38.7331 44.8053 37.974 44.5547 37.0859 44.5547C35.9258 44.5547 34.9733 44.8268 34.2285 45.3711C33.498 45.901 32.9609 46.6458 32.6172 47.6055C32.2734 48.5651 32.1016 49.668 32.1016 50.9141H28.2988C28.2988 49.1523 28.6211 47.541 29.2656 46.0801C29.9245 44.6191 30.9056 43.459 32.209 42.5996C33.5124 41.7259 35.138 41.2891 37.0859 41.2891C38.7617 41.2891 40.194 41.64 41.3828 42.3418C42.5859 43.0293 43.5026 44.0033 44.1328 45.2637C44.7773 46.5098 45.0996 47.9707 45.0996 49.6465C45.0996 50.5632 44.9707 51.4941 44.7129 52.4395C44.4694 53.3704 44.1257 54.3014 43.6816 55.2324C43.252 56.1634 42.7435 57.0801 42.1562 57.9824C41.569 58.8848 40.9388 59.7728 40.2656 60.6465L33.3262 69.7344H46.2598Z" fill="white"/>
</g>

</svg>
