<svg width="56" height="84" viewBox="0 0 56 84" fill="none" xmlns="http://www.w3.org/2000/svg">

<g id="4H">
<rect width="56" height="84" rx="4" fill="#972438"/>
<path d="M14.4456 18.6362C14.3244 18.9188 13.8347 18.9167 13.7164 18.6329C13.6038 18.3631 13.477 18.1011 13.3358 17.847C13.0151 17.2697 12.3946 16.3731 11.4743 15.1572C10.7994 14.2647 10.3838 13.6986 10.2276 13.4588C9.97107 13.0683 9.78561 12.71 9.67127 12.3837C9.55693 12.0574 9.49976 11.7269 9.49976 11.3922C9.49976 10.7731 9.70613 10.2544 10.1189 9.83605C10.5316 9.41774 11.042 9.20857 11.65 9.20856C12.2635 9.20857 12.7962 9.4261 13.248 9.86115C13.4091 10.0144 13.5559 10.2033 13.6882 10.4278C13.8378 10.6815 14.2955 10.6742 14.4409 10.4182C14.5628 10.2036 14.7006 10.0207 14.8543 9.86952C15.3173 9.42331 15.8527 9.2002 16.4607 9.2002C17.0631 9.2002 17.5735 9.40797 17.9918 9.8235C18.4101 10.239 18.6193 10.7341 18.6193 11.3086C18.6193 11.8106 18.4966 12.3335 18.2511 12.8773C18.0057 13.4211 17.5316 14.1337 16.8288 15.0149C15.9141 16.1695 15.2476 17.1177 14.8292 17.8596C14.6867 18.1132 14.5588 18.3721 14.4456 18.6362Z" fill="white"/>
<path d="M46.668 62.4727V65.7383H27.5469V63.3965L39.1699 41.7188H42.2207L39.1699 47.9922L31.7793 62.4727H46.668ZM43.1875 41.7188V73H39.3848V41.7188H43.1875Z" fill="white"/>
</g>

</svg>
