<svg width="56" height="84" viewBox="0 0 56 84" fill="none" xmlns="http://www.w3.org/2000/svg">


<g id="KD">
<rect width="56" height="84" rx="4" fill="#BF901D"/>
<path d="M14.5286 8.88359C14.2857 8.50544 13.7267 8.50544 13.4838 8.88359C12.4142 10.549 11.2271 12.1378 9.946 13.6468C9.75257 13.8747 9.75267 14.2096 9.9465 14.4372C11.2251 15.938 12.4221 17.5163 13.4766 19.1832C13.7205 19.5688 14.2919 19.5688 14.5358 19.1832C15.5903 17.5163 16.7873 15.938 18.0659 14.4372C18.2597 14.2096 18.2598 13.8747 18.0664 13.6468C16.7853 12.1378 15.5982 10.549 14.5286 8.88359Z" fill="white"/>
<path d="M31.3066 41.7188V73H27.3535V41.7188H31.3066ZM47.0332 41.7188L36.2695 56.3066L29.9746 63.8906L29.2656 59.4648L33.8848 53.4062L42.3066 41.7188H47.0332ZM43.1016 73L33.8848 57.7461L36.2266 54.459L47.8066 73H43.1016Z" fill="white"/>
</g>
</svg>
