<svg width="56" height="84" viewBox="0 0 56 84" fill="none" xmlns="http://www.w3.org/2000/svg">


<g id="6S">
<rect width="56" height="84" rx="4" fill="#2C407B"/>
<path d="M14.4594 8.81471C14.3274 8.52856 13.7837 8.52856 13.6517 8.81471C13.5485 9.03848 13.4326 9.25173 13.304 9.45412C12.9658 9.98649 12.3635 10.6431 11.4961 11.4291C10.6286 12.2151 10.0785 12.8174 9.8468 13.237C9.61508 13.6566 9.50025 14.0825 9.50024 14.5147C9.50025 15.1159 9.70067 15.617 10.1015 16.0178C10.5023 16.4186 10.9909 16.619 11.567 16.619C12.2107 16.619 12.7634 16.3258 13.2157 15.9058C13.4404 15.6971 13.8577 15.8525 13.801 16.154C13.7253 16.5563 13.6169 16.9049 13.4752 17.1994C13.1965 17.7788 12.7697 18.2582 12.1934 18.6399C11.8195 18.8875 11.1568 19.1055 10.2075 19.2947C10.1406 19.3081 10.0873 19.3591 10.0718 19.4256V19.4256C10.0464 19.534 10.1288 19.6378 10.2402 19.6378H14.0514H17.8668C17.9782 19.6378 18.0605 19.534 18.0352 19.4256V19.4256C18.0196 19.3591 17.9663 19.3081 17.8994 19.2947C16.9501 19.1055 16.2874 18.8875 15.9136 18.6399C15.3372 18.2582 14.9105 17.7788 14.6318 17.1994C14.4905 16.9057 14.3822 16.5583 14.3065 16.1575C14.2496 15.8561 14.6674 15.6999 14.8927 15.9079C15.3465 16.3269 15.9011 16.619 16.5441 16.619C17.1203 16.619 17.6088 16.4186 18.0096 16.0178C18.4105 15.617 18.6109 15.1159 18.6109 14.5147C18.6109 14.0825 18.4961 13.6566 18.2643 13.237C18.0326 12.8174 17.4825 12.2151 16.6151 11.4291C15.7476 10.6431 15.1453 9.98649 14.8071 9.45412C14.6786 9.25173 14.5626 9.03848 14.4594 8.81471Z" fill="white"/>
<path d="M41.7266 41.6758H42.0059V45.0488H41.7266C39.9219 45.0488 38.4395 45.3926 37.2793 46.0801C36.1335 46.7533 35.2383 47.6628 34.5938 48.8086C33.9635 49.9401 33.5267 51.2148 33.2832 52.6328C33.0397 54.0508 32.918 55.4902 32.918 56.9512V61.5488C32.918 62.9381 33.0469 64.1699 33.3047 65.2441C33.5768 66.304 33.9277 67.1992 34.3574 67.9297C34.8014 68.6602 35.2956 69.2116 35.8398 69.584C36.3984 69.9564 36.9642 70.1426 37.5371 70.1426C38.2676 70.1426 38.9121 69.9707 39.4707 69.627C40.0436 69.2689 40.5163 68.7747 40.8887 68.1445C41.2754 67.5 41.569 66.7409 41.7695 65.8672C41.9701 64.9935 42.0703 64.0339 42.0703 62.9883C42.0703 62.0573 41.9772 61.1621 41.791 60.3027C41.6191 59.429 41.3542 58.6556 40.9961 57.9824C40.638 57.2949 40.1797 56.7578 39.6211 56.3711C39.0768 55.9701 38.4251 55.7695 37.666 55.7695C36.8066 55.7695 36.0046 56.0417 35.2598 56.5859C34.5293 57.1159 33.9277 57.8177 33.4551 58.6914C32.9824 59.5508 32.7031 60.4889 32.6172 61.5059L30.6621 61.4844C30.8626 59.8802 31.1992 58.5124 31.6719 57.3809C32.1445 56.235 32.7174 55.304 33.3906 54.5879C34.0781 53.8574 34.8372 53.3275 35.668 52.998C36.4987 52.6543 37.3724 52.4824 38.2891 52.4824C39.6211 52.4824 40.7598 52.776 41.7051 53.3633C42.6647 53.9505 43.4453 54.7383 44.0469 55.7266C44.6628 56.7005 45.1139 57.8034 45.4004 59.0352C45.6869 60.2526 45.8301 61.5059 45.8301 62.7949C45.8301 64.2702 45.651 65.6523 45.293 66.9414C44.9492 68.2305 44.4336 69.362 43.7461 70.3359C43.0586 71.3099 42.1921 72.069 41.1465 72.6133C40.1152 73.1576 38.9121 73.4297 37.5371 73.4297C36.0762 73.4297 34.8158 73.0859 33.7559 72.3984C32.696 71.6966 31.8151 70.7656 31.1133 69.6055C30.4258 68.4453 29.9173 67.1562 29.5879 65.7383C29.2585 64.3203 29.0938 62.8809 29.0938 61.4199V59.5508C29.0938 57.3451 29.2513 55.1823 29.5664 53.0625C29.8815 50.9427 30.4759 49.0234 31.3496 47.3047C32.2376 45.5859 33.5124 44.2181 35.1738 43.2012C36.8496 42.1842 39.0339 41.6758 41.7266 41.6758Z" fill="white"/>
</g>
</svg>
