<svg width="56" height="84" viewBox="0 0 56 84" fill="none" xmlns="http://www.w3.org/2000/svg">


<g id="unknown">
<rect x="1" y="1" width="54" height="82" rx="3" fill="#202020"/>
<rect x="1" y="1" width="54" height="82" rx="3" fill="white" fill-opacity="0.04"/>
<rect x="1" y="1" width="54" height="82" rx="3" stroke="white" stroke-width="2" />
<path d="M26.417 48.083C26.417 46.3057 26.646 44.9377 27.104 43.979C27.5627 43.021 28.4587 41.9447 29.792 40.75C30.8753 39.778 31.7017 38.8613 32.271 38C32.8403 37.1387 33.125 36.1943 33.125 35.167C33.125 33.8057 32.6597 32.6667 31.729 31.75C30.7983 30.8333 29.5137 30.375 27.875 30.375C26.4303 30.375 25.3053 30.75 24.5 31.5C23.6947 32.25 23.0697 33.0973 22.625 34.042L19.958 32.833C20.6247 31.3057 21.6177 30.049 22.937 29.063C24.257 28.0763 25.903 27.583 27.875 27.583C30.5137 27.583 32.5413 28.3193 33.958 29.792C35.3747 31.264 36.083 33.014 36.083 35.042C36.083 36.3193 35.8053 37.479 35.25 38.521C34.6947 39.5623 33.8473 40.611 32.708 41.667C31.264 43.0003 30.3753 44.0557 30.042 44.833C29.7087 45.611 29.528 46.6943 29.5 48.083H26.417ZM27.875 57.833C27.2637 57.833 26.729 57.611 26.271 57.167C25.8123 56.7223 25.583 56.1807 25.583 55.542C25.583 54.9027 25.8123 54.361 26.271 53.917C26.729 53.4723 27.2637 53.25 27.875 53.25C28.5137 53.25 29.0553 53.4723 29.5 53.917C29.9447 54.361 30.167 54.9027 30.167 55.542C30.167 56.1807 29.9447 56.7223 29.5 57.167C29.0553 57.611 28.5137 57.833 27.875 57.833Z" fill="white"/>
</g>

</svg>
