<svg width="56" height="84" viewBox="0 0 56 84" fill="none" xmlns="http://www.w3.org/2000/svg">


<g id="QC">
<rect width="56" height="84" rx="4" fill="#3B7E15"/>
<path fill-rule="evenodd" clip-rule="evenodd" d="M14.9792 13.0263C14.686 13.1683 14.45 13.4392 14.45 13.765V14.2601C14.45 14.365 14.535 14.45 14.6399 14.45C14.7302 14.45 14.8072 14.3861 14.8313 14.299C15.0943 13.3482 15.9654 12.65 17 12.65C18.2428 12.65 19.25 13.6574 19.25 14.9C19.25 16.1426 18.2428 17.15 17 17.15C16.1921 17.15 15.484 16.7244 15.0872 16.0851C14.8676 15.7314 14.5375 15.419 14.1365 15.36C14.1904 16.026 14.3186 16.57 14.5214 16.9916C14.7731 17.5147 15.1586 17.9474 15.6789 18.2923C16.0166 18.5157 16.6148 18.7128 17.472 18.8836C17.5324 18.8957 17.5805 18.9417 17.5946 19.0017C17.6174 19.0997 17.5431 19.1934 17.4425 19.1934H13.9973H10.556C10.4554 19.1934 10.381 19.0997 10.4039 19.0017C10.4179 18.9417 10.4661 18.8957 10.5265 18.8836C11.3836 18.7128 11.9819 18.5157 12.3196 18.2923C12.8399 17.9474 13.2254 17.5147 13.4771 16.9916C13.6799 16.5701 13.808 16.0261 13.8619 15.3602C13.4616 15.4199 13.1321 15.7319 12.9128 16.0851C12.516 16.7244 11.8079 17.15 11 17.15C9.75723 17.15 8.75 16.1426 8.75 14.9C8.75 13.6574 9.75723 12.65 11 12.65C12.0346 12.65 12.9057 13.3482 13.1687 14.299C13.1928 14.3861 13.2698 14.45 13.3601 14.45C13.465 14.45 13.55 14.365 13.55 14.2601V13.765C13.55 13.4392 13.314 13.1683 13.0208 13.0263C12.2686 12.6622 11.75 11.8917 11.75 11C11.75 9.75737 12.7572 8.75 14 8.75C15.2428 8.75 16.25 9.75737 16.25 11C16.25 11.8917 15.7314 12.6622 14.9792 13.0263Z" fill="white"/>
<path d="M38.5684 69.4121L45.5078 75.707L42.8223 78.2852L36.0332 72.0762L38.5684 69.4121ZM45.0781 54.6523V60.0664C45.0781 62.2865 44.8346 64.2344 44.3477 65.9102C43.875 67.5716 43.1803 68.9609 42.2637 70.0781C41.347 71.1953 40.237 72.0332 38.9336 72.5918C37.6445 73.1504 36.1908 73.4297 34.5723 73.4297C33.0111 73.4297 31.5859 73.1504 30.2969 72.5918C29.0078 72.0332 27.8978 71.1953 26.9668 70.0781C26.0358 68.9609 25.3125 67.5716 24.7969 65.9102C24.2956 64.2344 24.0449 62.2865 24.0449 60.0664V54.6523C24.0449 52.4323 24.2956 50.4915 24.7969 48.8301C25.2982 47.1686 26.0143 45.7793 26.9453 44.6621C27.8763 43.5306 28.9863 42.6855 30.2754 42.127C31.5645 41.5684 32.9896 41.2891 34.5508 41.2891C36.1693 41.2891 37.623 41.5684 38.9121 42.127C40.2155 42.6855 41.3255 43.5306 42.2422 44.6621C43.1589 45.7793 43.8607 47.1686 44.3477 48.8301C44.8346 50.4915 45.0781 52.4323 45.0781 54.6523ZM41.168 60.0664V54.6094C41.168 52.8906 41.0247 51.4154 40.7383 50.1836C40.4518 48.9375 40.0221 47.9206 39.4492 47.1328C38.8906 46.3451 38.2031 45.765 37.3867 45.3926C36.5703 45.0059 35.625 44.8125 34.5508 44.8125C33.5482 44.8125 32.6387 45.0059 31.8223 45.3926C31.0202 45.765 30.3327 46.3451 29.7598 47.1328C29.1868 47.9206 28.7428 48.9375 28.4277 50.1836C28.127 51.4154 27.9766 52.8906 27.9766 54.6094V60.0664C27.9766 61.7995 28.127 63.2891 28.4277 64.5352C28.7428 65.7812 29.1868 66.8053 29.7598 67.6074C30.347 68.3952 31.0417 68.9824 31.8437 69.3691C32.6602 69.7415 33.5697 69.9277 34.5723 69.9277C35.6465 69.9277 36.5918 69.7415 37.4082 69.3691C38.2389 68.9824 38.9336 68.3952 39.4922 67.6074C40.0508 66.8053 40.4661 65.7812 40.7383 64.5352C41.0247 63.2891 41.168 61.7995 41.168 60.0664Z" fill="white"/>
</g>
</svg>
