<svg width="56" height="84" viewBox="0 0 56 84" fill="none" xmlns="http://www.w3.org/2000/svg">


<g id="TS">
<rect width="56" height="84" rx="4" fill="#2C407B"/>
<path d="M14.4594 8.81471C14.3274 8.52856 13.7837 8.52856 13.6517 8.81471C13.5485 9.03848 13.4326 9.25173 13.304 9.45412C12.9658 9.98649 12.3635 10.6431 11.4961 11.4291C10.6286 12.2151 10.0785 12.8174 9.8468 13.237C9.61508 13.6566 9.50025 14.0825 9.50024 14.5147C9.50025 15.1159 9.70067 15.617 10.1015 16.0178C10.5023 16.4186 10.9909 16.619 11.567 16.619C12.2107 16.619 12.7634 16.3258 13.2157 15.9058C13.4404 15.6971 13.8577 15.8525 13.801 16.154C13.7253 16.5563 13.6169 16.9049 13.4752 17.1994C13.1965 17.7788 12.7697 18.2582 12.1934 18.6399C11.8195 18.8875 11.1568 19.1055 10.2075 19.2947C10.1406 19.3081 10.0873 19.3591 10.0718 19.4256V19.4256C10.0464 19.534 10.1288 19.6378 10.2402 19.6378H14.0514H17.8668C17.9782 19.6378 18.0605 19.534 18.0352 19.4256V19.4256C18.0196 19.3591 17.9663 19.3081 17.8994 19.2947C16.9501 19.1055 16.2874 18.8875 15.9136 18.6399C15.3372 18.2582 14.9105 17.7788 14.6318 17.1994C14.4905 16.9057 14.3822 16.5583 14.3065 16.1575C14.2496 15.8561 14.6674 15.6999 14.8927 15.9079C15.3465 16.3269 15.9011 16.619 16.5441 16.619C17.1203 16.619 17.6088 16.4186 18.0096 16.0178C18.4105 15.617 18.6109 15.1159 18.6109 14.5147C18.6109 14.0825 18.4961 13.6566 18.2643 13.237C18.0326 12.8174 17.4825 12.2151 16.6151 11.4291C15.7476 10.6431 15.1453 9.98649 14.8071 9.45412C14.6786 9.25173 14.5626 9.03848 14.4594 8.81471Z" fill="white"/>
<path d="M22.5176 41.5469V73H18.7148V46.5098L12.1406 49.4316V45.8438L21.9375 41.5469H22.5176Z" fill="white"/>
<path d="M45.0564 54.8672V59.6367C45.0564 62.2005 44.8559 64.3633 44.4548 66.125C44.0681 67.8867 43.5095 69.3047 42.7791 70.3789C42.0486 71.4531 41.1677 72.2337 40.1365 72.7207C39.1196 73.1934 37.9737 73.4297 36.699 73.4297C35.6964 73.4297 34.7582 73.2793 33.8845 72.9785C33.0252 72.6777 32.2517 72.1979 31.5642 71.5391C30.8767 70.8659 30.2895 69.9922 29.8025 68.918C29.3155 67.8438 28.9431 66.5404 28.6853 65.0078C28.4275 63.4753 28.2986 61.6849 28.2986 59.6367V54.8672C28.2986 52.3034 28.4991 50.1549 28.9002 48.4219C29.3012 46.6888 29.867 45.2995 30.5974 44.2539C31.3422 43.194 32.2231 42.4349 33.24 41.9766C34.2712 41.5182 35.4171 41.2891 36.6775 41.2891C37.6944 41.2891 38.6326 41.4395 39.492 41.7402C40.3657 42.0267 41.1391 42.4922 41.8123 43.1367C42.4998 43.7669 43.087 44.612 43.574 45.6719C44.061 46.7174 44.4262 47.9993 44.6697 49.5176C44.9275 51.0358 45.0564 52.819 45.0564 54.8672ZM41.2752 60.2812V54.2012C41.2752 52.7975 41.2107 51.5658 41.0818 50.5059C40.9529 49.4316 40.7667 48.515 40.5232 47.7559C40.2797 46.9967 39.9646 46.3809 39.5779 45.9082C39.2055 45.4355 38.7758 45.0918 38.2888 44.877C37.8018 44.6478 37.2647 44.5332 36.6775 44.5332C35.947 44.5332 35.2953 44.7122 34.7224 45.0703C34.1638 45.4141 33.684 45.9655 33.283 46.7246C32.8962 47.4837 32.6026 48.4792 32.4021 49.7109C32.2016 50.9427 32.1013 52.4395 32.1013 54.2012V60.2812C32.1013 61.6849 32.1658 62.9238 32.2947 63.998C32.4379 65.0723 32.6313 66.0033 32.8748 66.791C33.1326 67.5645 33.4477 68.2018 33.8201 68.7031C34.1925 69.2044 34.6222 69.5768 35.1091 69.8203C35.5961 70.0495 36.1261 70.1641 36.699 70.1641C37.4581 70.1641 38.117 69.9779 38.6755 69.6055C39.2485 69.2331 39.7283 68.653 40.115 67.8652C40.5017 67.0632 40.7882 66.0391 40.9744 64.793C41.1749 63.5326 41.2752 62.0286 41.2752 60.2812Z" fill="white"/>
</g>
</svg>
