<svg width="56" height="84" viewBox="0 0 56 84" fill="none" xmlns="http://www.w3.org/2000/svg">

<g id="2D">
<rect width="56" height="84" rx="4" fill="#BF901D"/>
<path d="M14.5286 8.88359C14.2857 8.50544 13.7267 8.50544 13.4838 8.88359C12.4142 10.549 11.2271 12.1378 9.946 13.6468C9.75257 13.8747 9.75267 14.2096 9.9465 14.4372C11.2251 15.938 12.4221 17.5163 13.4766 19.1832C13.7205 19.5688 14.2919 19.5688 14.5358 19.1832C15.5903 17.5163 16.7873 15.938 18.0659 14.4372C18.2597 14.2096 18.2598 13.8747 18.0664 13.6468C16.7853 12.1378 15.5982 10.549 14.5286 8.88359Z" fill="white"/>
<path d="M46.2598 69.7344V73H28.7715V70.1426L37.3867 58.7344C38.4466 57.3307 39.2559 56.1419 39.8145 55.168C40.373 54.1797 40.7598 53.2988 40.9746 52.5254C41.1895 51.7376 41.2969 50.9355 41.2969 50.1191C41.2969 49.0879 41.1322 48.1569 40.8027 47.3262C40.4733 46.4811 39.9935 45.8079 39.3633 45.3066C38.7331 44.8053 37.974 44.5547 37.0859 44.5547C35.9258 44.5547 34.9733 44.8268 34.2285 45.3711C33.498 45.901 32.9609 46.6458 32.6172 47.6055C32.2734 48.5651 32.1016 49.668 32.1016 50.9141H28.2988C28.2988 49.1523 28.6211 47.541 29.2656 46.0801C29.9245 44.6191 30.9056 43.459 32.209 42.5996C33.5124 41.7259 35.138 41.2891 37.0859 41.2891C38.7617 41.2891 40.194 41.64 41.3828 42.3418C42.5859 43.0293 43.5026 44.0033 44.1328 45.2637C44.7773 46.5098 45.0996 47.9707 45.0996 49.6465C45.0996 50.5632 44.9707 51.4941 44.7129 52.4395C44.4694 53.3704 44.1257 54.3014 43.6816 55.2324C43.252 56.1634 42.7435 57.0801 42.1562 57.9824C41.569 58.8848 40.9388 59.7728 40.2656 60.6465L33.3262 69.7344H46.2598Z" fill="white"/>
</g>

</svg>
