<svg width="56" height="84" viewBox="0 0 56 84" fill="none" xmlns="http://www.w3.org/2000/svg">


<g id="9C">
<rect width="56" height="84" rx="4" fill="#3B7E15"/>
<path fill-rule="evenodd" clip-rule="evenodd" d="M14.9792 13.0263C14.686 13.1683 14.45 13.4392 14.45 13.765V14.2601C14.45 14.365 14.535 14.45 14.6399 14.45C14.7302 14.45 14.8072 14.3861 14.8313 14.299C15.0943 13.3482 15.9654 12.65 17 12.65C18.2428 12.65 19.25 13.6574 19.25 14.9C19.25 16.1426 18.2428 17.15 17 17.15C16.1921 17.15 15.484 16.7244 15.0872 16.0851C14.8676 15.7314 14.5375 15.419 14.1365 15.36C14.1904 16.026 14.3186 16.57 14.5214 16.9916C14.7731 17.5147 15.1586 17.9474 15.6789 18.2923C16.0166 18.5157 16.6148 18.7128 17.472 18.8836C17.5324 18.8957 17.5805 18.9417 17.5946 19.0017C17.6174 19.0997 17.5431 19.1934 17.4425 19.1934H13.9973H10.556C10.4554 19.1934 10.381 19.0997 10.4039 19.0017C10.4179 18.9417 10.4661 18.8957 10.5265 18.8836C11.3836 18.7128 11.9819 18.5157 12.3196 18.2923C12.8399 17.9474 13.2254 17.5147 13.4771 16.9916C13.6799 16.5701 13.808 16.0261 13.8619 15.3602C13.4616 15.4199 13.1321 15.7319 12.9128 16.0851C12.516 16.7244 11.8079 17.15 11 17.15C9.75723 17.15 8.75 16.1426 8.75 14.9C8.75 13.6574 9.75723 12.65 11 12.65C12.0346 12.65 12.9057 13.3482 13.1687 14.299C13.1928 14.3861 13.2698 14.45 13.3601 14.45C13.465 14.45 13.55 14.365 13.55 14.2601V13.765C13.55 13.4392 13.314 13.1683 13.0208 13.0263C12.2686 12.6622 11.75 11.8917 11.75 11C11.75 9.75737 12.7572 8.75 14 8.75C15.2428 8.75 16.25 9.75737 16.25 11C16.25 11.8917 15.7314 12.6622 14.9792 13.0263Z" fill="white"/>
<path d="M31.7795 69.6699H32.0803C34.0139 69.6699 35.568 69.3477 36.7424 68.7031C37.9169 68.0586 38.7978 67.1921 39.385 66.1035C39.9866 65.015 40.3876 63.7904 40.5881 62.4297C40.803 61.0547 40.9104 59.6439 40.9104 58.1973V53.4062C40.9104 51.9883 40.7743 50.7279 40.5022 49.625C40.2444 48.5221 39.8935 47.5983 39.4495 46.8535C39.0198 46.1087 38.5256 45.543 37.967 45.1562C37.4228 44.7695 36.8642 44.5762 36.2913 44.5762C35.5608 44.5762 34.9163 44.7624 34.3577 45.1348C33.7991 45.4928 33.3264 46.0013 32.9397 46.6602C32.5673 47.319 32.2808 48.0924 32.0803 48.9805C31.8798 49.8685 31.7795 50.8353 31.7795 51.8809C31.7795 52.8118 31.8655 53.7142 32.0374 54.5879C32.2092 55.4616 32.4742 56.2493 32.8323 56.9512C33.2047 57.653 33.663 58.2116 34.2073 58.627C34.7659 59.028 35.4247 59.2285 36.1838 59.2285C36.814 59.2285 37.4228 59.0566 38.01 58.7129C38.6116 58.3548 39.1558 57.875 39.6428 57.2734C40.1298 56.6576 40.5308 55.9629 40.8459 55.1895C41.1611 54.416 41.3472 53.6068 41.4045 52.7617H43.1877C43.1877 53.9505 42.9944 55.125 42.6077 56.2852C42.2353 57.431 41.6982 58.4766 40.9963 59.4219C40.3088 60.3672 39.4996 61.1263 38.5686 61.6992C37.6519 62.2578 36.6422 62.5371 35.5393 62.5371C34.2073 62.5371 33.0686 62.2363 32.1233 61.6348C31.178 61.0332 30.4045 60.2311 29.803 59.2285C29.2157 58.2259 28.7789 57.1087 28.4924 55.877C28.206 54.6309 28.0627 53.3704 28.0627 52.0957C28.0627 50.6061 28.2346 49.2096 28.5784 47.9062C28.9221 46.6029 29.4306 45.457 30.1038 44.4687C30.7913 43.4661 31.6506 42.6855 32.6819 42.127C33.7131 41.5684 34.9163 41.2891 36.2913 41.2891C37.8238 41.2891 39.1272 41.6471 40.2014 42.3633C41.2756 43.0794 42.1422 44.0391 42.801 45.2422C43.4599 46.4453 43.9397 47.7988 44.2405 49.3027C44.5413 50.8066 44.6917 52.3535 44.6917 53.9434V55.3828C44.6917 57.0013 44.6129 58.6484 44.4553 60.3242C44.3121 61.9857 44.0042 63.5755 43.5315 65.0937C43.0732 66.612 42.3857 67.9727 41.469 69.1758C40.5523 70.3646 39.3277 71.3099 37.7952 72.0117C36.2769 72.6992 34.372 73.043 32.0803 73.043H31.801L31.7795 69.6699Z" fill="white"/>
</g>
</svg>
