<svg width="56" height="84" viewBox="0 0 56 84" fill="none" xmlns="http://www.w3.org/2000/svg">


<g id="9S">
<rect width="56" height="84" rx="4" fill="#2C407B"/>
<path d="M14.4594 8.81471C14.3274 8.52856 13.7837 8.52856 13.6517 8.81471C13.5485 9.03848 13.4326 9.25173 13.304 9.45412C12.9658 9.98649 12.3635 10.6431 11.4961 11.4291C10.6286 12.2151 10.0785 12.8174 9.8468 13.237C9.61508 13.6566 9.50025 14.0825 9.50024 14.5147C9.50025 15.1159 9.70067 15.617 10.1015 16.0178C10.5023 16.4186 10.9909 16.619 11.567 16.619C12.2107 16.619 12.7634 16.3258 13.2157 15.9058C13.4404 15.6971 13.8577 15.8525 13.801 16.154C13.7253 16.5563 13.6169 16.9049 13.4752 17.1994C13.1965 17.7788 12.7697 18.2582 12.1934 18.6399C11.8195 18.8875 11.1568 19.1055 10.2075 19.2947C10.1406 19.3081 10.0873 19.3591 10.0718 19.4256V19.4256C10.0464 19.534 10.1288 19.6378 10.2402 19.6378H14.0514H17.8668C17.9782 19.6378 18.0605 19.534 18.0352 19.4256V19.4256C18.0196 19.3591 17.9663 19.3081 17.8994 19.2947C16.9501 19.1055 16.2874 18.8875 15.9136 18.6399C15.3372 18.2582 14.9105 17.7788 14.6318 17.1994C14.4905 16.9057 14.3822 16.5583 14.3065 16.1575C14.2496 15.8561 14.6674 15.6999 14.8927 15.9079C15.3465 16.3269 15.9011 16.619 16.5441 16.619C17.1203 16.619 17.6088 16.4186 18.0096 16.0178C18.4105 15.617 18.6109 15.1159 18.6109 14.5147C18.6109 14.0825 18.4961 13.6566 18.2643 13.237C18.0326 12.8174 17.4825 12.2151 16.6151 11.4291C15.7476 10.6431 15.1453 9.98649 14.8071 9.45412C14.6786 9.25173 14.5626 9.03848 14.4594 8.81471Z" fill="white"/>
<path d="M31.7794 69.6699H32.0802C34.0138 69.6699 35.5678 69.3477 36.7423 68.7031C37.9168 68.0586 38.7976 67.1921 39.3849 66.1035C39.9865 65.015 40.3875 63.7904 40.588 62.4297C40.8029 61.0547 40.9103 59.6439 40.9103 58.1973V53.4062C40.9103 51.9883 40.7742 50.7279 40.5021 49.625C40.2443 48.5221 39.8934 47.5983 39.4493 46.8535C39.0197 46.1087 38.5255 45.543 37.9669 45.1562C37.4226 44.7695 36.8641 44.5762 36.2911 44.5762C35.5607 44.5762 34.9161 44.7624 34.3575 45.1348C33.799 45.4928 33.3263 46.0013 32.9396 46.6602C32.5672 47.319 32.2807 48.0924 32.0802 48.9805C31.8797 49.8685 31.7794 50.8353 31.7794 51.8809C31.7794 52.8118 31.8654 53.7142 32.0372 54.5879C32.2091 55.4616 32.4741 56.2493 32.8322 56.9512C33.2045 57.653 33.6629 58.2116 34.2072 58.627C34.7657 59.028 35.4246 59.2285 36.1837 59.2285C36.8139 59.2285 37.4226 59.0566 38.0099 58.7129C38.6115 58.3548 39.1557 57.875 39.6427 57.2734C40.1297 56.6576 40.5307 55.9629 40.8458 55.1895C41.1609 54.416 41.3471 53.6068 41.4044 52.7617H43.1876C43.1876 53.9505 42.9943 55.125 42.6075 56.2852C42.2351 57.431 41.698 58.4766 40.9962 59.4219C40.3087 60.3672 39.4995 61.1263 38.5685 61.6992C37.6518 62.2578 36.642 62.5371 35.5392 62.5371C34.2072 62.5371 33.0685 62.2363 32.1232 61.6348C31.1779 61.0332 30.4044 60.2311 29.8029 59.2285C29.2156 58.2259 28.7788 57.1087 28.4923 55.877C28.2059 54.6309 28.0626 53.3704 28.0626 52.0957C28.0626 50.6061 28.2345 49.2096 28.5782 47.9062C28.922 46.6029 29.4305 45.457 30.1036 44.4687C30.7911 43.4661 31.6505 42.6855 32.6818 42.127C33.713 41.5684 34.9161 41.2891 36.2911 41.2891C37.8237 41.2891 39.1271 41.6471 40.2013 42.3633C41.2755 43.0794 42.142 44.0391 42.8009 45.2422C43.4598 46.4453 43.9396 47.7988 44.2404 49.3027C44.5411 50.8066 44.6915 52.3535 44.6915 53.9434V55.3828C44.6915 57.0013 44.6128 58.6484 44.4552 60.3242C44.312 61.9857 44.004 63.5755 43.5314 65.0937C43.073 66.612 42.3855 67.9727 41.4689 69.1758C40.5522 70.3646 39.3276 71.3099 37.795 72.0117C36.2768 72.6992 34.3719 73.043 32.0802 73.043H31.8009L31.7794 69.6699Z" fill="white"/>
</g>
</svg>
