<svg xmlns="http://www.w3.org/2000/svg">

    <symbol id="clc-check" viewBox="0 0 16 16" fill="none">
        <circle cx="8" cy="8" r="8" fill="#96E072"/>
        <path d="M4 8.5L7 11L11.5 5" stroke="black" stroke-width="2" stroke-linecap="round"/>
    </symbol>

    <symbol id="clc-del" viewBox="0 0 20 20" fill="none">
        <g opacity="0.9">
            <circle cx="10" cy="10" r="10" fill="white"/>
            <path fill-rule="evenodd" clip-rule="evenodd" d="M10 8.58582L7.00003 5.58582L5.58582 7.00003L8.58582 10L5.58582 13L7.00003 14.4142L10 11.4142L13 14.4142L14.4142 13L11.4142 10L14.4142 7.00003L13 5.58582L10 8.58582Z" fill="black"/>
        </g>
    </symbol>
    <symbol id="clc-cards-reset" viewBox="0 0 20 20" fill="none">
        <g opacity="0.9">
            <circle cx="10" cy="10" r="10" fill="white"/>
            <path d="M9.85 7.75C9.85 7.81067 9.88655 7.86536 9.9426 7.88858C9.99865 7.9118 10.0632 7.89897 10.1061 7.85607L13.1061 4.85607C13.1646 4.79749 13.1646 4.70251 13.1061 4.64393L10.1061 1.64393C10.0632 1.60103 9.99865 1.5882 9.9426 1.61142C9.88655 1.63464 9.85 1.68933 9.85 1.75V3.85179C6.52153 3.93137 3.85 6.6523 3.85 10C3.85 11.2072 4.2038 12.3299 4.80332 13.2753C4.82771 13.3138 4.86825 13.3391 4.91351 13.3441C4.95878 13.3491 5.00386 13.3333 5.03607 13.3011L6.13107 12.2061C6.17802 12.1591 6.18851 12.0869 6.15687 12.0285C5.83136 11.4281 5.65 10.7327 5.65 10C5.65 7.65054 7.51959 5.7318 9.85 5.65255V7.75ZM15.1967 6.72467C15.1723 6.68621 15.1317 6.66091 15.0865 6.65591C15.0412 6.6509 14.9961 6.66673 14.9639 6.69893L13.8689 7.79393C13.8225 7.84033 13.8117 7.91148 13.8421 7.9696C14.1618 8.57987 14.35 9.26863 14.35 10C14.35 12.3495 12.4804 14.2682 10.15 14.3475V12.25C10.15 12.1893 10.1135 12.1346 10.0574 12.1114C10.0014 12.0882 9.93683 12.101 9.89393 12.1439L6.89393 15.1439C6.83536 15.2025 6.83536 15.2975 6.89393 15.3561L9.89393 18.3561C9.93683 18.399 10.0014 18.4118 10.0574 18.3886C10.1135 18.3654 10.15 18.3107 10.15 18.25V16.1482C13.4785 16.0686 16.15 13.3477 16.15 10C16.15 8.79275 15.7962 7.67007 15.1967 6.72467Z" fill="black" stroke="black" stroke-width="0.3" stroke-linejoin="round"/>
        </g>
    </symbol>
    <symbol id="desktop-reset" viewBox="0 0 40 40" fill="none">
        <circle cx="20" cy="20" r="20" fill="white"/>
        <g clip-path="url(#clip0_461_4056)">
            <path d="M20 14V17L24 13L20 9V12C15.58 12 12 15.58 12 20C12 21.57 12.46 23.03 13.24 24.26L14.7 22.8C14.25 21.97 14 21.01 14 20C14 16.69 16.69 14 20 14ZM26.76 15.74L25.3 17.2C25.74 18.04 26 18.99 26 20C26 23.31 23.31 26 20 26V23L16 27L20 31V28C24.42 28 28 24.42 28 20C28 18.43 27.54 16.97 26.76 15.74Z" fill="black"/>
        </g>
        <defs>
            <clipPath id="clip0_461_4056">
                <rect width="24" height="24" fill="white" transform="translate(8 8)"/>
            </clipPath>
        </defs>
    </symbol>
    <svg id="share" viewBox="0 0 20 10" fill="none">
        <path d="M9 10H5C3.61667 10 2.43733 9.51233 1.462 8.537C0.486667 7.56167 -0.000665984 6.38267 6.8306e-07 5C6.8306e-07 3.61667 0.487667 2.43733 1.463 1.462C2.43833 0.486667 3.61733 -0.000665984 5 6.8306e-07H9V2H5C4.16667 2 3.45833 2.29167 2.875 2.875C2.29167 3.45833 2 4.16667 2 5C2 5.83333 2.29167 6.54167 2.875 7.125C3.45833 7.70833 4.16667 8 5 8H9V10ZM6 6V4H14V6H6ZM11 10V8H15C15.8333 8 16.5417 7.70833 17.125 7.125C17.7083 6.54167 18 5.83333 18 5C18 4.16667 17.7083 3.45833 17.125 2.875C16.5417 2.29167 15.8333 2 15 2H11V6.8306e-07H15C16.3833 6.8306e-07 17.5627 0.487668 18.538 1.463C19.5133 2.43833 20.0007 3.61733 20 5C20 6.38333 19.5123 7.56267 18.537 8.538C17.5617 9.51333 16.3827 10.0007 15 10H11Z" fill="white"/>
    </svg>
    <symbol id="share-desk" viewBox="0 0 40 40" fill="none">
        <g>
            <circle cx="20" cy="20" r="20" fill="white"/>
            <g clip-path="url(#clip0_634_9092)">
                <path d="M19 25H15C13.6167 25 12.4373 24.5123 11.462 23.537C10.4867 22.5617 9.99933 21.3827 10 20C10 18.6167 10.4877 17.4373 11.463 16.462C12.4383 15.4867 13.6173 14.9993 15 15H19V17H15C14.1667 17 13.4583 17.2917 12.875 17.875C12.2917 18.4583 12 19.1667 12 20C12 20.8333 12.2917 21.5417 12.875 22.125C13.4583 22.7083 14.1667 23 15 23H19V25ZM16 21V19H24V21H16ZM21 25V23H25C25.8333 23 26.5417 22.7083 27.125 22.125C27.7083 21.5417 28 20.8333 28 20C28 19.1667 27.7083 18.4583 27.125 17.875C26.5417 17.2917 25.8333 17 25 17H21V15H25C26.3833 15 27.5627 15.4877 28.538 16.463C29.5133 17.4383 30.0007 18.6173 30 20C30 21.3833 29.5123 22.5627 28.537 23.538C27.5617 24.5133 26.3827 25.0007 25 25H21Z" fill="black"/>
            </g>
        </g>
        <defs>
            <clipPath id="clip0_634_9092">
                <rect width="24" height="24" fill="white" transform="translate(7 8)"/>
            </clipPath>
        </defs>
    </symbol>
    <svg id="fullscreen" viewBox="0 0 20 20">
        <path fill-rule="evenodd" d="M1 1v6h2V3h4V1H1zm2 12H1v6h6v-2H3v-4zm14 4h-4v2h6v-6h-2v4zm0-16h-4v2h4v4h2V1h-2z" fill="white"/>
    </svg>
    <svg id="fullscreen-off" viewBox="0 0 20 20">
        <path fill-rule="evenodd" d="M7 7V1H5v4H1v2h6zM5 19h2v-6H1v2h4v4zm10-4h4v-2h-6v6h2v-4zm0-8h4V5h-4V1h-2v6h2z" fill="white"/>
    </svg>
    <symbol id="back" viewBox="0 0 24 24" fill="none">
        <path d="M20 11H7.83L13.42 5.41L12 4L4 12L12 20L13.41 18.59L7.83 13H20V11Z" fill="white"/>
    </symbol>
    <symbol id="settings" viewBox="0 0 20 20" fill="none">
        <path d="M17.1401 10.94C17.1801 10.64 17.2001 10.33 17.2001 10C17.2001 9.68003 17.1801 9.36002 17.1301 9.06002L19.1601 7.48002C19.3401 7.34002 19.3901 7.07002 19.2801 6.87002L17.3601 3.55002C17.2401 3.33002 16.9901 3.26002 16.7701 3.33002L14.3801 4.29002C13.8801 3.91002 13.3501 3.59002 12.7601 3.35002L12.4001 0.810024C12.3601 0.570024 12.1601 0.400024 11.9201 0.400024H8.08011C7.84011 0.400024 7.65011 0.570024 7.61011 0.810024L7.25011 3.35002C6.66011 3.59002 6.12011 3.92002 5.63011 4.29002L3.24011 3.33002C3.02011 3.25002 2.77011 3.33002 2.65011 3.55002L0.74011 6.87002C0.62011 7.08002 0.66011 7.34002 0.86011 7.48002L2.89011 9.06002C2.84011 9.36002 2.80011 9.69002 2.80011 10C2.80011 10.31 2.82011 10.64 2.87011 10.94L0.84011 12.52C0.66011 12.66 0.61011 12.93 0.72011 13.13L2.64011 16.45C2.76011 16.67 3.01011 16.74 3.23011 16.67L5.62011 15.71C6.12011 16.09 6.65011 16.41 7.24011 16.65L7.60011 19.19C7.65011 19.43 7.84011 19.6 8.08011 19.6H11.9201C12.1601 19.6 12.3601 19.43 12.3901 19.19L12.7501 16.65C13.3401 16.41 13.8801 16.09 14.3701 15.71L16.7601 16.67C16.9801 16.75 17.2301 16.67 17.3501 16.45L19.2701 13.13C19.3901 12.91 19.3401 12.66 19.1501 12.52L17.1401 10.94ZM10.0001 13.6C8.02011 13.6 6.40011 11.98 6.40011 10C6.40011 8.02002 8.02011 6.40002 10.0001 6.40002C11.9801 6.40002 13.6001 8.02002 13.6001 10C13.6001 11.98 11.9801 13.6 10.0001 13.6Z" fill="white"/>
    </symbol>
    <symbol id="reset" viewBox="0 0 24 24" fill="none">
        <path d="M12 6V9L16 5L12 1V4C7.58 4 4 7.58 4 12C4 13.57 4.46 15.03 5.24 16.26L6.7 14.8C6.25 13.97 6 13.01 6 12C6 8.69 8.69 6 12 6ZM18.76 7.74L17.3 9.2C17.74 10.04 18 10.99 18 12C18 15.31 15.31 18 12 18V15L8 19L12 23V20C16.42 20 20 16.42 20 12C20 10.43 19.54 8.97 18.76 7.74Z" fill="white"/>
    </symbol>
    <symbol id="close" viewBox="0 0 24 24" fill="none">
        <path d="M19 6.41L17.59 5L12 10.59L6.41 5L5 6.41L10.59 12L5 17.59L6.41 19L12 13.41L17.59 19L19 17.59L13.41 12L19 6.41Z" fill="white"/>
    </symbol>
    <symbol id="person" viewBox="0 0 24 24" fill="none" opacity="0.4">
        <path d="M12 12C15.315 12 18 9.315 18 6C18 2.685 15.315 0 12 0C8.685 0 6 2.685 6 6C6 9.315 8.685 12 12 12ZM12 15C7.995 15 0 17.01 0 21V24H24V21C24 17.01 16.005 15 12 15Z" fill="white"/>
    </symbol>
    <symbol id="plus" viewBox="0 0 60 60" fill="none">
        <g opacity="0.4">
            <circle cx="30" cy="30" r="30" fill="white"/>
            <path d="M40.5 31.5H31.5V40.5H28.5V31.5H19.5V28.5H28.5V19.5H31.5V28.5H40.5V31.5Z" fill="black"/>
        </g>
    </symbol>
    <symbol id="minus" viewBox="0 0 60 60" fill="none">
        <g opacity="0.4">
            <circle cx="30" cy="30" r="30" fill="white"/>
            <g clip-path="url(#clip0_14_36791)">
                <path d="M40.5 31.5H19.5V28.5H40.5V31.5Z" fill="black"/>
            </g>
        </g>
        <defs>
            <clipPath id="clip0_14_36791">
                <rect width="36" height="36" fill="white" transform="translate(12 12)"/>
            </clipPath>
        </defs>
    </symbol>
    <symbol id="desktop-plus" viewBox="0 0 60 60" fill="none">
        <g>
            <circle cx="30" cy="30" r="30" fill="white"/>
            <path d="M40.5 31.5H31.5V40.5H28.5V31.5H19.5V28.5H28.5V19.5H31.5V28.5H40.5V31.5Z" fill="black"/>
        </g>
    </symbol>
    <symbol id="desktop-minus" viewBox="0 0 60 60" fill="none">
        <g>
            <circle cx="30" cy="30" r="30" fill="white"/>
            <g clip-path="url(#clip0_14_36791)">
                <path d="M40.5 31.5H19.5V28.5H40.5V31.5Z" fill="black"/>
            </g>
        </g>
        <defs>
            <clipPath id="clip0_14_36791">
                <rect width="36" height="36" fill="white" transform="translate(12 12)"/>
            </clipPath>
        </defs>
    </symbol>

    <symbol id="equal" viewBox="0 0 12 8" fill="none">
        <rect width="12" height="2" fill="#666666"/>
        <rect y="6" width="12" height="2" fill="#666666"/>
    </symbol>
    <symbol id="rotate" viewBox="0 0 60 60" fill="none">
        <path d="M41.212 6.28749C49.3745 10.1625 55.237 18.1 56.1245 27.5H59.8745C58.5995 12.1 45.7245 -7.62939e-06 29.9995 -7.62939e-06C29.437 -7.62939e-06 28.8995 0.0499924 28.337 0.0874924L37.8744 9.62499L41.212 6.28749ZM25.5744 4.36249C24.1119 2.89999 21.7369 2.89999 20.2744 4.36249L4.36195 20.275C2.89945 21.7375 2.89945 24.1125 4.36195 25.575L34.412 55.625C35.8745 57.0875 38.2495 57.0875 39.712 55.625L55.6245 39.7125C57.087 38.25 57.087 35.875 55.6245 34.4125L25.5744 4.36249V4.36249ZM37.0745 52.975L7.01195 22.925L22.9245 7.01249L52.9745 37.0625L37.0745 52.975V52.975ZM18.7869 53.7125C10.6244 49.8375 4.76195 41.9 3.87445 32.5H0.124451C1.39945 47.9 14.2745 60 29.9995 60C30.562 60 31.0995 59.95 31.662 59.9125L22.1245 50.375L18.7869 53.7125Z" fill="white"/>
    </symbol>
    <symbol id="copy" viewBox="0 0 12 16" fill="none">
        <path d="M3.34265 4.80996V3.22851C3.34265 2.58229 3.34265 2.25919 3.4641 2.01237C3.57093 1.79526 3.74139 1.61874 3.95106 1.50812C4.18942 1.38235 4.50145 1.38235 5.1255 1.38235H9.35979C9.98385 1.38235 10.2959 1.38235 10.5342 1.50812C10.7439 1.61874 10.9144 1.79526 11.0212 2.01237C11.1426 2.25919 11.1426 2.58229 11.1426 3.22851V9.34389C11.1426 9.99011 11.1426 10.3132 11.0212 10.56C10.9144 10.7771 10.7439 10.9537 10.5342 11.0643C10.2959 11.19 9.98385 11.19 9.35979 11.19H8.65693M2.63979 14.6176H6.87408C7.49813 14.6176 7.81016 14.6176 8.04852 14.4919C8.25819 14.3813 8.42865 14.2047 8.53548 13.9876C8.65693 13.7408 8.65693 13.4177 8.65693 12.7715V6.65611C8.65693 6.0099 8.65693 5.68679 8.53548 5.43997C8.42865 5.22286 8.25819 5.04634 8.04852 4.93572C7.81016 4.80996 7.49813 4.80996 6.87408 4.80996H2.63979C2.01573 4.80996 1.7037 4.80996 1.46534 4.93572C1.25568 5.04634 1.08521 5.22286 0.978383 5.43997C0.856934 5.68679 0.856934 6.0099 0.856934 6.65611V12.7715C0.856934 13.4177 0.856934 13.7408 0.978383 13.9876C1.08521 14.2047 1.25568 14.3813 1.46534 14.4919C1.7037 14.6176 2.01573 14.6176 2.63979 14.6176Z" stroke="black" stroke-linecap="round" stroke-linejoin="round"/>
    </symbol>
</svg>