<svg width="56" height="84" viewBox="0 0 56 84" fill="none" xmlns="http://www.w3.org/2000/svg">

<g id="6D">
<rect width="56" height="84" rx="4" fill="#BF901D"/>
<path d="M14.5286 8.88359C14.2857 8.50544 13.7267 8.50544 13.4838 8.88359C12.4142 10.549 11.2271 12.1378 9.946 13.6468C9.75257 13.8747 9.75267 14.2096 9.9465 14.4372C11.2251 15.938 12.4221 17.5163 13.4766 19.1832C13.7205 19.5688 14.2919 19.5688 14.5358 19.1832C15.5903 17.5163 16.7873 15.938 18.0659 14.4372C18.2597 14.2096 18.2598 13.8747 18.0664 13.6468C16.7853 12.1378 15.5982 10.549 14.5286 8.88359Z" fill="white"/>
<path d="M41.7266 41.6759H42.0059V45.0489H41.7266C39.9219 45.0489 38.4395 45.3927 37.2793 46.0802C36.1335 46.7534 35.2383 47.6629 34.5938 48.8087C33.9635 49.9402 33.5267 51.215 33.2832 52.6329C33.0397 54.0509 32.918 55.4904 32.918 56.9513V61.5489C32.918 62.9383 33.0469 64.17 33.3047 65.2443C33.5768 66.3042 33.9277 67.1993 34.3574 67.9298C34.8014 68.6603 35.2956 69.2117 35.8398 69.5841C36.3984 69.9565 36.9642 70.1427 37.5371 70.1427C38.2676 70.1427 38.9121 69.9708 39.4707 69.6271C40.0436 69.269 40.5163 68.7749 40.8887 68.1447C41.2754 67.5001 41.569 66.741 41.7695 65.8673C41.9701 64.9936 42.0703 64.034 42.0703 62.9884C42.0703 62.0574 41.9772 61.1622 41.791 60.3029C41.6191 59.4292 41.3542 58.6557 40.9961 57.9825C40.638 57.295 40.1797 56.7579 39.6211 56.3712C39.0768 55.9702 38.4251 55.7697 37.666 55.7697C36.8066 55.7697 36.0046 56.0418 35.2598 56.5861C34.5293 57.116 33.9277 57.8178 33.4551 58.6915C32.9824 59.5509 32.7031 60.4891 32.6172 61.506L30.6621 61.4845C30.8626 59.8803 31.1992 58.5125 31.6719 57.381C32.1445 56.2351 32.7174 55.3042 33.3906 54.588C34.0781 53.8575 34.8372 53.3276 35.668 52.9982C36.4987 52.6544 37.3724 52.4825 38.2891 52.4825C39.6211 52.4825 40.7598 52.7762 41.7051 53.3634C42.6647 53.9506 43.4453 54.7384 44.0469 55.7267C44.6628 56.7006 45.1139 57.8035 45.4004 59.0353C45.6869 60.2527 45.8301 61.506 45.8301 62.795C45.8301 64.2703 45.651 65.6525 45.293 66.9415C44.9492 68.2306 44.4336 69.3621 43.7461 70.3361C43.0586 71.31 42.1921 72.0691 41.1465 72.6134C40.1152 73.1577 38.9121 73.4298 37.5371 73.4298C36.0762 73.4298 34.8158 73.0861 33.7559 72.3986C32.696 71.6967 31.8151 70.7657 31.1133 69.6056C30.4258 68.4454 29.9173 67.1564 29.5879 65.7384C29.2585 64.3204 29.0938 62.881 29.0938 61.42V59.5509C29.0938 57.3452 29.2513 55.1824 29.5664 53.0626C29.8815 50.9428 30.4759 49.0236 31.3496 47.3048C32.2376 45.5861 33.5124 44.2182 35.1738 43.2013C36.8496 42.1844 39.0339 41.6759 41.7266 41.6759Z" fill="white"/>
</g>

</svg>
