<svg width="56" height="84" viewBox="0 0 56 84" fill="none" xmlns="http://www.w3.org/2000/svg">


<g id="6C">
<rect width="56" height="84" rx="4" fill="#3B7E15"/>
<path fill-rule="evenodd" clip-rule="evenodd" d="M14.9792 13.0263C14.686 13.1683 14.45 13.4392 14.45 13.765V14.2601C14.45 14.365 14.535 14.45 14.6399 14.45C14.7302 14.45 14.8072 14.3861 14.8313 14.299C15.0943 13.3482 15.9654 12.65 17 12.65C18.2428 12.65 19.25 13.6574 19.25 14.9C19.25 16.1426 18.2428 17.15 17 17.15C16.1921 17.15 15.484 16.7244 15.0872 16.0851C14.8676 15.7314 14.5375 15.419 14.1365 15.36C14.1904 16.026 14.3186 16.57 14.5214 16.9916C14.7731 17.5147 15.1586 17.9474 15.6789 18.2923C16.0166 18.5157 16.6148 18.7128 17.472 18.8836C17.5324 18.8957 17.5805 18.9417 17.5946 19.0017C17.6174 19.0997 17.5431 19.1934 17.4425 19.1934H13.9973H10.556C10.4554 19.1934 10.381 19.0997 10.4039 19.0017C10.4179 18.9417 10.4661 18.8957 10.5265 18.8836C11.3836 18.7128 11.9819 18.5157 12.3196 18.2923C12.8399 17.9474 13.2254 17.5147 13.4771 16.9916C13.6799 16.5701 13.808 16.0261 13.8619 15.3602C13.4616 15.4199 13.1321 15.7319 12.9128 16.0851C12.516 16.7244 11.8079 17.15 11 17.15C9.75723 17.15 8.75 16.1426 8.75 14.9C8.75 13.6574 9.75723 12.65 11 12.65C12.0346 12.65 12.9057 13.3482 13.1687 14.299C13.1928 14.3861 13.2698 14.45 13.3601 14.45C13.465 14.45 13.55 14.365 13.55 14.2601V13.765C13.55 13.4392 13.314 13.1683 13.0208 13.0263C12.2686 12.6622 11.75 11.8917 11.75 11C11.75 9.75737 12.7572 8.75 14 8.75C15.2428 8.75 16.25 9.75737 16.25 11C16.25 11.8917 15.7314 12.6622 14.9792 13.0263Z" fill="white"/>
<path d="M41.7266 41.6758H42.0059V45.0488H41.7266C39.9219 45.0488 38.4395 45.3926 37.2793 46.0801C36.1335 46.7533 35.2383 47.6628 34.5938 48.8086C33.9635 49.9401 33.5267 51.2148 33.2832 52.6328C33.0397 54.0508 32.918 55.4902 32.918 56.9512V61.5488C32.918 62.9381 33.0469 64.1699 33.3047 65.2441C33.5768 66.304 33.9277 67.1992 34.3574 67.9297C34.8014 68.6602 35.2956 69.2116 35.8398 69.584C36.3984 69.9564 36.9642 70.1426 37.5371 70.1426C38.2676 70.1426 38.9121 69.9707 39.4707 69.627C40.0436 69.2689 40.5163 68.7747 40.8887 68.1445C41.2754 67.5 41.569 66.7409 41.7695 65.8672C41.9701 64.9935 42.0703 64.0339 42.0703 62.9883C42.0703 62.0573 41.9772 61.1621 41.791 60.3027C41.6191 59.429 41.3542 58.6556 40.9961 57.9824C40.638 57.2949 40.1797 56.7578 39.6211 56.3711C39.0768 55.9701 38.4251 55.7695 37.666 55.7695C36.8066 55.7695 36.0046 56.0417 35.2598 56.5859C34.5293 57.1159 33.9277 57.8177 33.4551 58.6914C32.9824 59.5508 32.7031 60.4889 32.6172 61.5059L30.6621 61.4844C30.8626 59.8802 31.1992 58.5124 31.6719 57.3809C32.1445 56.235 32.7174 55.304 33.3906 54.5879C34.0781 53.8574 34.8372 53.3275 35.668 52.998C36.4987 52.6543 37.3724 52.4824 38.2891 52.4824C39.6211 52.4824 40.7598 52.776 41.7051 53.3633C42.6647 53.9505 43.4453 54.7383 44.0469 55.7266C44.6628 56.7005 45.1139 57.8034 45.4004 59.0352C45.6869 60.2526 45.8301 61.5059 45.8301 62.7949C45.8301 64.2702 45.651 65.6523 45.293 66.9414C44.9492 68.2305 44.4336 69.362 43.7461 70.3359C43.0586 71.3099 42.1921 72.069 41.1465 72.6133C40.1152 73.1576 38.9121 73.4297 37.5371 73.4297C36.0762 73.4297 34.8158 73.0859 33.7559 72.3984C32.696 71.6966 31.8151 70.7656 31.1133 69.6055C30.4258 68.4453 29.9173 67.1562 29.5879 65.7383C29.2585 64.3203 29.0938 62.8809 29.0938 61.4199V59.5508C29.0938 57.3451 29.2513 55.1823 29.5664 53.0625C29.8815 50.9427 30.4759 49.0234 31.3496 47.3047C32.2376 45.5859 33.5124 44.2181 35.1738 43.2012C36.8496 42.1842 39.0339 41.6758 41.7266 41.6758Z" fill="white"/>
</g>
</svg>
