<svg width="56" height="84" viewBox="0 0 56 84" fill="none" xmlns="http://www.w3.org/2000/svg">

<g id="3S">
<rect width="56" height="84" rx="4" fill="#2C407B"/>
<path d="M14.4594 8.81471C14.3274 8.52856 13.7837 8.52856 13.6517 8.81471C13.5485 9.03848 13.4326 9.25173 13.304 9.45412C12.9658 9.98649 12.3635 10.6431 11.4961 11.4291C10.6286 12.2151 10.0785 12.8174 9.8468 13.237C9.61508 13.6566 9.50025 14.0825 9.50024 14.5147C9.50025 15.1159 9.70067 15.617 10.1015 16.0178C10.5023 16.4186 10.9909 16.619 11.567 16.619C12.2107 16.619 12.7634 16.3258 13.2157 15.9058C13.4404 15.6971 13.8577 15.8525 13.801 16.154C13.7253 16.5563 13.6169 16.9049 13.4752 17.1994C13.1965 17.7788 12.7697 18.2582 12.1934 18.6399C11.8195 18.8875 11.1568 19.1055 10.2075 19.2947C10.1406 19.3081 10.0873 19.3591 10.0718 19.4256V19.4256C10.0464 19.534 10.1288 19.6378 10.2402 19.6378H14.0514H17.8668C17.9782 19.6378 18.0605 19.534 18.0352 19.4256V19.4256C18.0196 19.3591 17.9663 19.3081 17.8994 19.2947C16.9501 19.1055 16.2874 18.8875 15.9136 18.6399C15.3372 18.2582 14.9105 17.7788 14.6318 17.1994C14.4905 16.9057 14.3822 16.5583 14.3065 16.1575C14.2496 15.8561 14.6674 15.6999 14.8927 15.9079C15.3465 16.3269 15.9011 16.619 16.5441 16.619C17.1203 16.619 17.6088 16.4186 18.0096 16.0178C18.4105 15.617 18.6109 15.1159 18.6109 14.5147C18.6109 14.0825 18.4961 13.6566 18.2643 13.237C18.0326 12.8174 17.4825 12.2151 16.6151 11.4291C15.7476 10.6431 15.1453 9.98649 14.8071 9.45412C14.6786 9.25173 14.5626 9.03848 14.4594 8.81471Z" fill="white"/>
<path d="M33.6486 55.4043H36.0978C37.1863 55.4043 38.0887 55.1751 38.8048 54.7168C39.521 54.2441 40.0509 53.6068 40.3947 52.8047C40.7527 51.9883 40.9318 51.0716 40.9318 50.0547C40.9318 48.8516 40.7742 47.8418 40.4591 47.0254C40.144 46.209 39.6713 45.5931 39.0411 45.1777C38.4253 44.7624 37.6447 44.5547 36.6993 44.5547C35.8113 44.5547 35.0379 44.7767 34.379 45.2207C33.7202 45.6504 33.2117 46.2663 32.8536 47.0684C32.4956 47.8704 32.3165 48.8158 32.3165 49.9043H28.5353C28.5353 48.3145 28.8647 46.8678 29.5236 45.5645C30.1967 44.2611 31.142 43.2227 32.3595 42.4492C33.5913 41.6758 35.0379 41.2891 36.6993 41.2891C38.2892 41.2891 39.6857 41.6257 40.8888 42.2988C42.0919 42.9577 43.0301 43.946 43.7032 45.2637C44.3907 46.5671 44.7345 48.1927 44.7345 50.1406C44.7345 50.9284 44.5841 51.7734 44.2833 52.6758C43.9969 53.5638 43.5314 54.3945 42.8868 55.168C42.2566 55.9414 41.4259 56.5788 40.3947 57.0801C39.3777 57.5671 38.1316 57.8105 36.6564 57.8105H33.6486V55.4043ZM33.6486 58.6699V56.2852H36.6564C38.4038 56.2852 39.8289 56.5215 40.9318 56.9941C42.0346 57.4668 42.8868 58.097 43.4884 58.8848C44.09 59.6725 44.5053 60.5391 44.7345 61.4844C44.978 62.4154 45.0997 63.3464 45.0997 64.2773C45.0997 65.7383 44.8849 67.0345 44.4552 68.166C44.0398 69.2975 43.4454 70.2572 42.672 71.0449C41.9129 71.8327 41.0249 72.4271 40.0079 72.8281C38.991 73.2292 37.881 73.4297 36.6779 73.4297C35.5034 73.4297 34.4148 73.2363 33.4122 72.8496C32.4096 72.4629 31.5288 71.9043 30.7697 71.1738C30.0105 70.429 29.4161 69.5195 28.9865 68.4453C28.5711 67.3568 28.3634 66.1178 28.3634 64.7285H32.1661C32.1661 65.8171 32.3452 66.7695 32.7032 67.5859C33.0613 68.4023 33.5769 69.0397 34.2501 69.498C34.9233 69.9421 35.7325 70.1641 36.6779 70.1641C37.6232 70.1641 38.4396 69.9564 39.1271 69.541C39.8146 69.1113 40.3445 68.4668 40.7169 67.6074C41.1036 66.748 41.297 65.6667 41.297 64.3633C41.297 63.0599 41.0822 61.9928 40.6525 61.1621C40.2371 60.3171 39.6427 59.694 38.8693 59.293C38.0958 58.8776 37.172 58.6699 36.0978 58.6699H33.6486Z" fill="white"/>
</g>

</svg>
