<svg width="56" height="84" viewBox="0 0 56 84" fill="none" xmlns="http://www.w3.org/2000/svg">

<g id="2S">
<rect width="56" height="84" rx="4" fill="#2C407B"/>
<path d="M14.4594 8.81471C14.3274 8.52856 13.7837 8.52856 13.6517 8.81471C13.5485 9.03848 13.4326 9.25173 13.304 9.45412C12.9658 9.98649 12.3635 10.6431 11.4961 11.4291C10.6286 12.2151 10.0785 12.8174 9.8468 13.237C9.61508 13.6566 9.50025 14.0825 9.50024 14.5147C9.50025 15.1159 9.70067 15.617 10.1015 16.0178C10.5023 16.4186 10.9909 16.619 11.567 16.619C12.2107 16.619 12.7634 16.3258 13.2157 15.9058C13.4404 15.6971 13.8577 15.8525 13.801 16.154C13.7253 16.5563 13.6169 16.9049 13.4752 17.1994C13.1965 17.7788 12.7697 18.2582 12.1934 18.6399C11.8195 18.8875 11.1568 19.1055 10.2075 19.2947C10.1406 19.3081 10.0873 19.3591 10.0718 19.4256V19.4256C10.0464 19.534 10.1288 19.6378 10.2402 19.6378H14.0514H17.8668C17.9782 19.6378 18.0605 19.534 18.0352 19.4256V19.4256C18.0196 19.3591 17.9663 19.3081 17.8994 19.2947C16.9501 19.1055 16.2874 18.8875 15.9136 18.6399C15.3372 18.2582 14.9105 17.7788 14.6318 17.1994C14.4905 16.9057 14.3822 16.5583 14.3065 16.1575C14.2496 15.8561 14.6674 15.6999 14.8927 15.9079C15.3465 16.3269 15.9011 16.619 16.5441 16.619C17.1203 16.619 17.6088 16.4186 18.0096 16.0178C18.4105 15.617 18.6109 15.1159 18.6109 14.5147C18.6109 14.0825 18.4961 13.6566 18.2643 13.237C18.0326 12.8174 17.4825 12.2151 16.6151 11.4291C15.7476 10.6431 15.1453 9.98649 14.8071 9.45412C14.6786 9.25173 14.5626 9.03848 14.4594 8.81471Z" fill="white"/>
<path d="M46.2598 69.7344V73H28.7715V70.1426L37.3867 58.7344C38.4466 57.3307 39.2559 56.1419 39.8145 55.168C40.373 54.1797 40.7598 53.2988 40.9746 52.5254C41.1895 51.7376 41.2969 50.9355 41.2969 50.1191C41.2969 49.0879 41.1322 48.1569 40.8027 47.3262C40.4733 46.4811 39.9935 45.8079 39.3633 45.3066C38.7331 44.8053 37.974 44.5547 37.0859 44.5547C35.9258 44.5547 34.9733 44.8268 34.2285 45.3711C33.498 45.901 32.9609 46.6458 32.6172 47.6055C32.2734 48.5651 32.1016 49.668 32.1016 50.9141H28.2988C28.2988 49.1523 28.6211 47.541 29.2656 46.0801C29.9245 44.6191 30.9056 43.459 32.209 42.5996C33.5124 41.7259 35.138 41.2891 37.0859 41.2891C38.7617 41.2891 40.194 41.64 41.3828 42.3418C42.5859 43.0293 43.5026 44.0033 44.1328 45.2637C44.7773 46.5098 45.0996 47.9707 45.0996 49.6465C45.0996 50.5632 44.9707 51.4941 44.7129 52.4395C44.4694 53.3704 44.1257 54.3014 43.6816 55.2324C43.252 56.1634 42.7435 57.0801 42.1562 57.9824C41.569 58.8848 40.9388 59.7728 40.2656 60.6465L33.3262 69.7344H46.2598Z" fill="white"/>
</g>

</svg>
