<svg width="56" height="84" viewBox="0 0 56 84" fill="none" xmlns="http://www.w3.org/2000/svg">

<g id="2C">
<rect width="56" height="84" rx="4" fill="#3B7E15"/>
<path fill-rule="evenodd" clip-rule="evenodd" d="M14.9792 13.0263C14.686 13.1683 14.45 13.4392 14.45 13.765V14.2601C14.45 14.365 14.535 14.45 14.6399 14.45C14.7302 14.45 14.8072 14.3861 14.8313 14.299C15.0943 13.3482 15.9654 12.65 17 12.65C18.2428 12.65 19.25 13.6574 19.25 14.9C19.25 16.1426 18.2428 17.15 17 17.15C16.1921 17.15 15.484 16.7244 15.0872 16.0851C14.8676 15.7314 14.5375 15.419 14.1365 15.36C14.1904 16.026 14.3186 16.57 14.5214 16.9916C14.7731 17.5147 15.1586 17.9474 15.6789 18.2923C16.0166 18.5157 16.6148 18.7128 17.472 18.8836C17.5324 18.8957 17.5805 18.9417 17.5946 19.0017C17.6174 19.0997 17.5431 19.1934 17.4425 19.1934H13.9973H10.556C10.4554 19.1934 10.381 19.0997 10.4039 19.0017C10.4179 18.9417 10.4661 18.8957 10.5265 18.8836C11.3836 18.7128 11.9819 18.5157 12.3196 18.2923C12.8399 17.9474 13.2254 17.5147 13.4771 16.9916C13.6799 16.5701 13.808 16.0261 13.8619 15.3602C13.4616 15.4199 13.1321 15.7319 12.9128 16.0851C12.516 16.7244 11.8079 17.15 11 17.15C9.75723 17.15 8.75 16.1426 8.75 14.9C8.75 13.6574 9.75723 12.65 11 12.65C12.0346 12.65 12.9057 13.3482 13.1687 14.299C13.1928 14.3861 13.2698 14.45 13.3601 14.45C13.465 14.45 13.55 14.365 13.55 14.2601V13.765C13.55 13.4392 13.314 13.1683 13.0208 13.0263C12.2686 12.6622 11.75 11.8917 11.75 11C11.75 9.75737 12.7572 8.75 14 8.75C15.2428 8.75 16.25 9.75737 16.25 11C16.25 11.8917 15.7314 12.6622 14.9792 13.0263Z" fill="white"/>
<path d="M46.2598 69.7344V73H28.7715V70.1426L37.3867 58.7344C38.4466 57.3307 39.2559 56.1419 39.8145 55.168C40.373 54.1797 40.7598 53.2988 40.9746 52.5254C41.1895 51.7376 41.2969 50.9355 41.2969 50.1191C41.2969 49.0879 41.1322 48.1569 40.8027 47.3262C40.4733 46.4811 39.9935 45.8079 39.3633 45.3066C38.7331 44.8053 37.974 44.5547 37.0859 44.5547C35.9258 44.5547 34.9733 44.8268 34.2285 45.3711C33.498 45.901 32.9609 46.6458 32.6172 47.6055C32.2734 48.5651 32.1016 49.668 32.1016 50.9141H28.2988C28.2988 49.1523 28.6211 47.541 29.2656 46.0801C29.9245 44.6191 30.9056 43.459 32.209 42.5996C33.5124 41.7259 35.138 41.2891 37.0859 41.2891C38.7617 41.2891 40.194 41.64 41.3828 42.3418C42.5859 43.0293 43.5026 44.0033 44.1328 45.2637C44.7773 46.5098 45.0996 47.9707 45.0996 49.6465C45.0996 50.5632 44.9707 51.4941 44.7129 52.4395C44.4694 53.3704 44.1257 54.3014 43.6816 55.2324C43.252 56.1634 42.7435 57.0801 42.1562 57.9824C41.569 58.8848 40.9388 59.7728 40.2656 60.6465L33.3262 69.7344H46.2598Z" fill="white"/>
</g>

</svg>
