<svg width="56" height="84" viewBox="0 0 56 84" fill="none" xmlns="http://www.w3.org/2000/svg">


<g id="8C">
<rect width="56" height="84" rx="4" fill="#3B7E15"/>
<path fill-rule="evenodd" clip-rule="evenodd" d="M14.9792 13.0263C14.686 13.1683 14.45 13.4392 14.45 13.765V14.2601C14.45 14.365 14.535 14.45 14.6399 14.45C14.7302 14.45 14.8072 14.3861 14.8313 14.299C15.0943 13.3482 15.9654 12.65 17 12.65C18.2428 12.65 19.25 13.6574 19.25 14.9C19.25 16.1426 18.2428 17.15 17 17.15C16.1921 17.15 15.484 16.7244 15.0872 16.0851C14.8676 15.7314 14.5375 15.419 14.1365 15.36C14.1904 16.026 14.3186 16.57 14.5214 16.9916C14.7731 17.5147 15.1586 17.9474 15.6789 18.2923C16.0166 18.5157 16.6148 18.7128 17.472 18.8836C17.5324 18.8957 17.5805 18.9417 17.5946 19.0017C17.6174 19.0997 17.5431 19.1934 17.4425 19.1934H13.9973H10.556C10.4554 19.1934 10.381 19.0997 10.4039 19.0017C10.4179 18.9417 10.4661 18.8957 10.5265 18.8836C11.3836 18.7128 11.9819 18.5157 12.3196 18.2923C12.8399 17.9474 13.2254 17.5147 13.4771 16.9916C13.6799 16.5701 13.808 16.0261 13.8619 15.3602C13.4616 15.4199 13.1321 15.7319 12.9128 16.0851C12.516 16.7244 11.8079 17.15 11 17.15C9.75723 17.15 8.75 16.1426 8.75 14.9C8.75 13.6574 9.75723 12.65 11 12.65C12.0346 12.65 12.9057 13.3482 13.1687 14.299C13.1928 14.3861 13.2698 14.45 13.3601 14.45C13.465 14.45 13.55 14.365 13.55 14.2601V13.765C13.55 13.4392 13.314 13.1683 13.0208 13.0263C12.2686 12.6622 11.75 11.8917 11.75 11C11.75 9.75737 12.7572 8.75 14 8.75C15.2428 8.75 16.25 9.75737 16.25 11C16.25 11.8917 15.7314 12.6622 14.9792 13.0263Z" fill="white"/>
<path d="M45.0352 64.5352C45.0352 66.4401 44.6699 68.0586 43.9395 69.3906C43.209 70.7083 42.2135 71.7109 40.9531 72.3984C39.6927 73.0859 38.2676 73.4297 36.6777 73.4297C35.1022 73.4297 33.6842 73.0859 32.4238 72.3984C31.1634 71.7109 30.168 70.7083 29.4375 69.3906C28.707 68.0586 28.3418 66.4401 28.3418 64.5352C28.3418 63.2891 28.5423 62.1504 28.9434 61.1191C29.3444 60.0736 29.9102 59.1641 30.6406 58.3906C31.3854 57.6172 32.2663 57.0228 33.2832 56.6074C34.3001 56.1777 35.4245 55.9629 36.6562 55.9629C38.2747 55.9629 39.7142 56.3353 40.9746 57.0801C42.235 57.8105 43.2233 58.8203 43.9395 60.1094C44.6699 61.3984 45.0352 62.8737 45.0352 64.5352ZM41.2539 64.4492C41.2539 63.2891 41.0605 62.265 40.6738 61.377C40.3014 60.4746 39.7715 59.7728 39.084 59.2715C38.3965 58.7702 37.5872 58.5195 36.6562 58.5195C35.7109 58.5195 34.9017 58.7702 34.2285 59.2715C33.5553 59.7728 33.0326 60.4746 32.6602 61.377C32.3021 62.265 32.123 63.2891 32.123 64.4492C32.123 65.6523 32.3021 66.6836 32.6602 67.543C33.0182 68.388 33.5339 69.0397 34.207 69.498C34.8945 69.9421 35.7253 70.1641 36.6992 70.1641C37.6589 70.1641 38.4753 69.9421 39.1484 69.498C39.8359 69.0397 40.3587 68.388 40.7168 67.543C41.0749 66.6836 41.2539 65.6523 41.2539 64.4492ZM44.4551 49.8613C44.4551 51.3796 44.1185 52.7474 43.4453 53.9648C42.7721 55.1823 41.8483 56.1419 40.6738 56.8438C39.5137 57.5456 38.1888 57.8965 36.6992 57.8965C35.181 57.8965 33.8346 57.5456 32.6602 56.8438C31.4857 56.1419 30.569 55.1823 29.9102 53.9648C29.2513 52.7474 28.9219 51.3796 28.9219 49.8613C28.9219 48.0423 29.2513 46.4954 29.9102 45.2207C30.5833 43.946 31.5072 42.972 32.6816 42.2988C33.8561 41.6257 35.1953 41.2891 36.6992 41.2891C38.2174 41.2891 39.5566 41.6257 40.7168 42.2988C41.877 42.972 42.7865 43.946 43.4453 45.2207C44.1185 46.4954 44.4551 48.0423 44.4551 49.8613ZM40.6523 49.9258C40.6523 48.8802 40.4876 47.9564 40.1582 47.1543C39.8431 46.3522 39.3848 45.722 38.7832 45.2637C38.196 44.791 37.5013 44.5547 36.6992 44.5547C35.8971 44.5547 35.1953 44.7767 34.5938 45.2207C34.0065 45.6504 33.5482 46.2663 33.2188 47.0684C32.8893 47.8704 32.7246 48.8229 32.7246 49.9258C32.7246 51 32.8822 51.9382 33.1973 52.7402C33.5267 53.5423 33.9922 54.1654 34.5938 54.6094C35.1953 55.0534 35.8971 55.2754 36.6992 55.2754C37.5013 55.2754 38.196 55.0534 38.7832 54.6094C39.3848 54.1654 39.8431 53.5423 40.1582 52.7402C40.4876 51.9382 40.6523 51 40.6523 49.9258Z" fill="white"/>
</g>
</svg>
