<svg width="56" height="84" viewBox="0 0 56 84" fill="none" xmlns="http://www.w3.org/2000/svg">


<g id="QD">
<rect width="56" height="84" rx="4" fill="#BF901D"/>
<path d="M14.5286 8.88359C14.2857 8.50544 13.7267 8.50544 13.4838 8.88359C12.4142 10.549 11.2271 12.1378 9.946 13.6468C9.75257 13.8747 9.75267 14.2096 9.9465 14.4372C11.2251 15.938 12.4221 17.5163 13.4766 19.1832C13.7205 19.5688 14.2919 19.5688 14.5358 19.1832C15.5903 17.5163 16.7873 15.938 18.0659 14.4372C18.2597 14.2096 18.2598 13.8747 18.0664 13.6468C16.7853 12.1378 15.5982 10.549 14.5286 8.88359Z" fill="white"/>
<path d="M38.5684 69.4121L45.5078 75.707L42.8223 78.2852L36.0332 72.0762L38.5684 69.4121ZM45.0781 54.6523V60.0664C45.0781 62.2865 44.8346 64.2344 44.3477 65.9102C43.875 67.5716 43.1803 68.9609 42.2637 70.0781C41.347 71.1953 40.237 72.0332 38.9336 72.5918C37.6445 73.1504 36.1908 73.4297 34.5723 73.4297C33.0111 73.4297 31.5859 73.1504 30.2969 72.5918C29.0078 72.0332 27.8978 71.1953 26.9668 70.0781C26.0358 68.9609 25.3125 67.5716 24.7969 65.9102C24.2956 64.2344 24.0449 62.2865 24.0449 60.0664V54.6523C24.0449 52.4323 24.2956 50.4915 24.7969 48.8301C25.2982 47.1686 26.0143 45.7793 26.9453 44.6621C27.8763 43.5306 28.9863 42.6855 30.2754 42.127C31.5645 41.5684 32.9896 41.2891 34.5508 41.2891C36.1693 41.2891 37.623 41.5684 38.9121 42.127C40.2155 42.6855 41.3255 43.5306 42.2422 44.6621C43.1589 45.7793 43.8607 47.1686 44.3477 48.8301C44.8346 50.4915 45.0781 52.4323 45.0781 54.6523ZM41.168 60.0664V54.6094C41.168 52.8906 41.0247 51.4154 40.7383 50.1836C40.4518 48.9375 40.0221 47.9206 39.4492 47.1328C38.8906 46.3451 38.2031 45.765 37.3867 45.3926C36.5703 45.0059 35.625 44.8125 34.5508 44.8125C33.5482 44.8125 32.6387 45.0059 31.8223 45.3926C31.0202 45.765 30.3327 46.3451 29.7598 47.1328C29.1868 47.9206 28.7428 48.9375 28.4277 50.1836C28.127 51.4154 27.9766 52.8906 27.9766 54.6094V60.0664C27.9766 61.7995 28.127 63.2891 28.4277 64.5352C28.7428 65.7812 29.1868 66.8053 29.7598 67.6074C30.347 68.3952 31.0417 68.9824 31.8437 69.3691C32.6602 69.7415 33.5697 69.9277 34.5723 69.9277C35.6465 69.9277 36.5918 69.7415 37.4082 69.3691C38.2389 68.9824 38.9336 68.3952 39.4922 67.6074C40.0508 66.8053 40.4661 65.7812 40.7383 64.5352C41.0247 63.2891 41.168 61.7995 41.168 60.0664Z" fill="white"/>
</g>
</svg>
