<svg width="56" height="84" viewBox="0 0 56 84" fill="none" xmlns="http://www.w3.org/2000/svg">


<g id="QS">
<rect width="56" height="84" rx="4" fill="#2C407B"/>
<path d="M14.4594 8.81471C14.3274 8.52856 13.7837 8.52856 13.6517 8.81471C13.5485 9.03848 13.4326 9.25173 13.304 9.45412C12.9658 9.98649 12.3635 10.6431 11.4961 11.4291C10.6286 12.2151 10.0785 12.8174 9.8468 13.237C9.61508 13.6566 9.50025 14.0825 9.50024 14.5147C9.50025 15.1159 9.70067 15.617 10.1015 16.0178C10.5023 16.4186 10.9909 16.619 11.567 16.619C12.2107 16.619 12.7634 16.3258 13.2157 15.9058C13.4404 15.6971 13.8577 15.8525 13.801 16.154C13.7253 16.5563 13.6169 16.9049 13.4752 17.1994C13.1965 17.7788 12.7697 18.2582 12.1934 18.6399C11.8195 18.8875 11.1568 19.1055 10.2075 19.2947C10.1406 19.3081 10.0873 19.3591 10.0718 19.4256V19.4256C10.0464 19.534 10.1288 19.6378 10.2402 19.6378H14.0514H17.8668C17.9782 19.6378 18.0605 19.534 18.0352 19.4256V19.4256C18.0196 19.3591 17.9663 19.3081 17.8994 19.2947C16.9501 19.1055 16.2874 18.8875 15.9136 18.6399C15.3372 18.2582 14.9105 17.7788 14.6318 17.1994C14.4905 16.9057 14.3822 16.5583 14.3065 16.1575C14.2496 15.8561 14.6674 15.6999 14.8927 15.9079C15.3465 16.3269 15.9011 16.619 16.5441 16.619C17.1203 16.619 17.6088 16.4186 18.0096 16.0178C18.4105 15.617 18.6109 15.1159 18.6109 14.5147C18.6109 14.0825 18.4961 13.6566 18.2643 13.237C18.0326 12.8174 17.4825 12.2151 16.6151 11.4291C15.7476 10.6431 15.1453 9.98649 14.8071 9.45412C14.6786 9.25173 14.5626 9.03848 14.4594 8.81471Z" fill="white"/>
<path d="M38.5684 69.4121L45.5078 75.707L42.8223 78.2852L36.0332 72.0762L38.5684 69.4121ZM45.0781 54.6523V60.0664C45.0781 62.2865 44.8346 64.2344 44.3477 65.9102C43.875 67.5716 43.1803 68.9609 42.2637 70.0781C41.347 71.1953 40.237 72.0332 38.9336 72.5918C37.6445 73.1504 36.1908 73.4297 34.5723 73.4297C33.0111 73.4297 31.5859 73.1504 30.2969 72.5918C29.0078 72.0332 27.8978 71.1953 26.9668 70.0781C26.0358 68.9609 25.3125 67.5716 24.7969 65.9102C24.2956 64.2344 24.0449 62.2865 24.0449 60.0664V54.6523C24.0449 52.4323 24.2956 50.4915 24.7969 48.8301C25.2982 47.1686 26.0143 45.7793 26.9453 44.6621C27.8763 43.5306 28.9863 42.6855 30.2754 42.127C31.5645 41.5684 32.9896 41.2891 34.5508 41.2891C36.1693 41.2891 37.623 41.5684 38.9121 42.127C40.2155 42.6855 41.3255 43.5306 42.2422 44.6621C43.1589 45.7793 43.8607 47.1686 44.3477 48.8301C44.8346 50.4915 45.0781 52.4323 45.0781 54.6523ZM41.168 60.0664V54.6094C41.168 52.8906 41.0247 51.4154 40.7383 50.1836C40.4518 48.9375 40.0221 47.9206 39.4492 47.1328C38.8906 46.3451 38.2031 45.765 37.3867 45.3926C36.5703 45.0059 35.625 44.8125 34.5508 44.8125C33.5482 44.8125 32.6387 45.0059 31.8223 45.3926C31.0202 45.765 30.3327 46.3451 29.7598 47.1328C29.1868 47.9206 28.7428 48.9375 28.4277 50.1836C28.127 51.4154 27.9766 52.8906 27.9766 54.6094V60.0664C27.9766 61.7995 28.127 63.2891 28.4277 64.5352C28.7428 65.7812 29.1868 66.8053 29.7598 67.6074C30.347 68.3952 31.0417 68.9824 31.8437 69.3691C32.6602 69.7415 33.5697 69.9277 34.5723 69.9277C35.6465 69.9277 36.5918 69.7415 37.4082 69.3691C38.2389 68.9824 38.9336 68.3952 39.4922 67.6074C40.0508 66.8053 40.4661 65.7812 40.7383 64.5352C41.0247 63.2891 41.168 61.7995 41.168 60.0664Z" fill="white"/>
</g>
</svg>
