<svg width="56" height="84" viewBox="0 0 56 84" fill="none" xmlns="http://www.w3.org/2000/svg">

<g id="5C">
<rect width="56" height="84" rx="4" fill="#3B7E15"/>
<path fill-rule="evenodd" clip-rule="evenodd" d="M14.9792 13.0263C14.686 13.1683 14.45 13.4392 14.45 13.765V14.2601C14.45 14.365 14.535 14.45 14.6399 14.45C14.7302 14.45 14.8072 14.3861 14.8313 14.299C15.0943 13.3482 15.9654 12.65 17 12.65C18.2428 12.65 19.25 13.6574 19.25 14.9C19.25 16.1426 18.2428 17.15 17 17.15C16.1921 17.15 15.484 16.7244 15.0872 16.0851C14.8676 15.7314 14.5375 15.419 14.1365 15.36C14.1904 16.026 14.3186 16.57 14.5214 16.9916C14.7731 17.5147 15.1586 17.9474 15.6789 18.2923C16.0166 18.5157 16.6148 18.7128 17.472 18.8836C17.5324 18.8957 17.5805 18.9417 17.5946 19.0017C17.6174 19.0997 17.5431 19.1934 17.4425 19.1934H13.9973H10.556C10.4554 19.1934 10.381 19.0997 10.4039 19.0017C10.4179 18.9417 10.4661 18.8957 10.5265 18.8836C11.3836 18.7128 11.9819 18.5157 12.3196 18.2923C12.8399 17.9474 13.2254 17.5147 13.4771 16.9916C13.6799 16.5701 13.808 16.0261 13.8619 15.3602C13.4616 15.4199 13.1321 15.7319 12.9128 16.0851C12.516 16.7244 11.8079 17.15 11 17.15C9.75723 17.15 8.75 16.1426 8.75 14.9C8.75 13.6574 9.75723 12.65 11 12.65C12.0346 12.65 12.9057 13.3482 13.1687 14.299C13.1928 14.3861 13.2698 14.45 13.3601 14.45C13.465 14.45 13.55 14.365 13.55 14.2601V13.765C13.55 13.4392 13.314 13.1683 13.0208 13.0263C12.2686 12.6622 11.75 11.8917 11.75 11C11.75 9.75737 12.7572 8.75 14 8.75C15.2428 8.75 16.25 9.75737 16.25 11C16.25 11.8917 15.7314 12.6622 14.9792 13.0263Z" fill="white"/>
<path d="M33.3689 58.1113L30.3396 57.2949L31.6716 41.7188H45.2927V45.3926H34.8728L34.1423 53.9004C34.6293 53.571 35.2166 53.263 35.9041 52.9766C36.5916 52.6901 37.3936 52.5469 38.3103 52.5469C39.5421 52.5469 40.6378 52.7975 41.5974 53.2988C42.5714 53.7858 43.3949 54.4876 44.0681 55.4043C44.7413 56.321 45.2569 57.4238 45.615 58.7129C45.9731 60.002 46.1521 61.4414 46.1521 63.0313C46.1521 64.5352 45.9731 65.9173 45.615 67.1777C45.2712 68.4382 44.7413 69.541 44.0251 70.4863C43.3233 71.4173 42.4353 72.1406 41.3611 72.6563C40.3012 73.1719 39.0623 73.4297 37.6443 73.4297C36.5844 73.4297 35.5818 73.2578 34.6365 72.9141C33.6912 72.556 32.8389 72.0189 32.0798 71.3027C31.335 70.5723 30.7263 69.6699 30.2537 68.5957C29.781 67.5072 29.4874 66.2324 29.3728 64.7715H32.9607C33.1039 65.946 33.3761 66.9342 33.7771 67.7363C34.1925 68.5384 34.7224 69.1471 35.3669 69.5625C36.0258 69.9635 36.7849 70.1641 37.6443 70.1641C38.3748 70.1641 39.0336 69.9994 39.6208 69.6699C40.2081 69.3405 40.7022 68.8678 41.1033 68.252C41.5043 67.6361 41.8123 66.8913 42.0271 66.0176C42.2419 65.1439 42.3494 64.1628 42.3494 63.0742C42.3494 62.0859 42.2419 61.1693 42.0271 60.3242C41.8123 59.4792 41.49 58.7415 41.0603 58.1113C40.6306 57.4811 40.1078 56.9941 39.4919 56.6504C38.8904 56.2923 38.1886 56.1133 37.3865 56.1133C36.3123 56.1133 35.5173 56.2923 35.0017 56.6504C34.5004 57.0085 33.9561 57.4954 33.3689 58.1113Z" fill="white"/>
</g>

</svg>
