<svg width="56" height="84" viewBox="0 0 56 84" fill="none" xmlns="http://www.w3.org/2000/svg">


<g id="5S">
<rect width="56" height="84" rx="4" fill="#2C407B"/>
<path d="M14.4594 8.81471C14.3274 8.52856 13.7837 8.52856 13.6517 8.81471C13.5485 9.03848 13.4326 9.25173 13.304 9.45412C12.9658 9.98649 12.3635 10.6431 11.4961 11.4291C10.6286 12.2151 10.0785 12.8174 9.8468 13.237C9.61508 13.6566 9.50025 14.0825 9.50024 14.5147C9.50025 15.1159 9.70067 15.617 10.1015 16.0178C10.5023 16.4186 10.9909 16.619 11.567 16.619C12.2107 16.619 12.7634 16.3258 13.2157 15.9058C13.4404 15.6971 13.8577 15.8525 13.801 16.154C13.7253 16.5563 13.6169 16.9049 13.4752 17.1994C13.1965 17.7788 12.7697 18.2582 12.1934 18.6399C11.8195 18.8875 11.1568 19.1055 10.2075 19.2947C10.1406 19.3081 10.0873 19.3591 10.0718 19.4256V19.4256C10.0464 19.534 10.1288 19.6378 10.2402 19.6378H14.0514H17.8668C17.9782 19.6378 18.0605 19.534 18.0352 19.4256V19.4256C18.0196 19.3591 17.9663 19.3081 17.8994 19.2947C16.9501 19.1055 16.2874 18.8875 15.9136 18.6399C15.3372 18.2582 14.9105 17.7788 14.6318 17.1994C14.4905 16.9057 14.3822 16.5583 14.3065 16.1575C14.2496 15.8561 14.6674 15.6999 14.8927 15.9079C15.3465 16.3269 15.9011 16.619 16.5441 16.619C17.1203 16.619 17.6088 16.4186 18.0096 16.0178C18.4105 15.617 18.6109 15.1159 18.6109 14.5147C18.6109 14.0825 18.4961 13.6566 18.2643 13.237C18.0326 12.8174 17.4825 12.2151 16.6151 11.4291C15.7476 10.6431 15.1453 9.98649 14.8071 9.45412C14.6786 9.25173 14.5626 9.03848 14.4594 8.81471Z" fill="white"/>
<path d="M33.369 58.1113L30.3397 57.2949L31.6718 41.7188H45.2928V45.3926H34.8729L34.1425 53.9004C34.6294 53.571 35.2167 53.263 35.9042 52.9766C36.5917 52.6901 37.3938 52.5469 38.3104 52.5469C39.5422 52.5469 40.6379 52.7975 41.5975 53.2988C42.5715 53.7858 43.3951 54.4876 44.0682 55.4043C44.7414 56.321 45.257 57.4238 45.6151 58.7129C45.9732 60.002 46.1522 61.4414 46.1522 63.0313C46.1522 64.5352 45.9732 65.9173 45.6151 67.1777C45.2714 68.4382 44.7414 69.541 44.0253 70.4863C43.3234 71.4173 42.4354 72.1406 41.3612 72.6563C40.3013 73.1719 39.0624 73.4297 37.6444 73.4297C36.5845 73.4297 35.5819 73.2578 34.6366 72.9141C33.6913 72.556 32.8391 72.0189 32.08 71.3027C31.3352 70.5723 30.7264 69.6699 30.2538 68.5957C29.7811 67.5072 29.4875 66.2324 29.3729 64.7715H32.9608C33.104 65.946 33.3762 66.9342 33.7772 67.7363C34.1926 68.5384 34.7225 69.1471 35.3671 69.5625C36.0259 69.9635 36.785 70.1641 37.6444 70.1641C38.3749 70.1641 39.0337 69.9994 39.621 69.6699C40.2082 69.3405 40.7024 68.8678 41.1034 68.252C41.5044 67.6361 41.8124 66.8913 42.0272 66.0176C42.2421 65.1439 42.3495 64.1628 42.3495 63.0742C42.3495 62.0859 42.2421 61.1693 42.0272 60.3242C41.8124 59.4792 41.4901 58.7415 41.0604 58.1113C40.6307 57.4811 40.108 56.9941 39.4921 56.6504C38.8905 56.2923 38.1887 56.1133 37.3866 56.1133C36.3124 56.1133 35.5175 56.2923 35.0018 56.6504C34.5005 57.0085 33.9563 57.4954 33.369 58.1113Z" fill="white"/>
</g>

</svg>
