<svg width="56" height="84" viewBox="0 0 56 84" fill="none" xmlns="http://www.w3.org/2000/svg">


<g id="8H">
<rect width="56" height="84" rx="4" fill="#972438"/>
<path d="M14.4456 18.6362C14.3244 18.9188 13.8347 18.9167 13.7164 18.6329C13.6038 18.3631 13.477 18.1011 13.3358 17.847C13.0151 17.2697 12.3946 16.3731 11.4743 15.1572C10.7994 14.2647 10.3838 13.6986 10.2276 13.4588C9.97107 13.0683 9.78561 12.71 9.67127 12.3837C9.55693 12.0574 9.49976 11.7269 9.49976 11.3922C9.49976 10.7731 9.70613 10.2544 10.1189 9.83605C10.5316 9.41774 11.042 9.20857 11.65 9.20856C12.2635 9.20857 12.7962 9.4261 13.248 9.86115C13.4091 10.0144 13.5559 10.2033 13.6882 10.4278C13.8378 10.6815 14.2955 10.6742 14.4409 10.4182C14.5628 10.2036 14.7006 10.0207 14.8543 9.86952C15.3173 9.42331 15.8527 9.2002 16.4607 9.2002C17.0631 9.2002 17.5735 9.40797 17.9918 9.8235C18.4101 10.239 18.6193 10.7341 18.6193 11.3086C18.6193 11.8106 18.4966 12.3335 18.2511 12.8773C18.0057 13.4211 17.5316 14.1337 16.8288 15.0149C15.9141 16.1695 15.2476 17.1177 14.8292 17.8596C14.6867 18.1132 14.5588 18.3721 14.4456 18.6362Z" fill="white"/>
<path d="M45.0352 64.5352C45.0352 66.4401 44.6699 68.0586 43.9395 69.3906C43.209 70.7083 42.2135 71.7109 40.9531 72.3984C39.6927 73.0859 38.2676 73.4297 36.6777 73.4297C35.1022 73.4297 33.6842 73.0859 32.4238 72.3984C31.1634 71.7109 30.168 70.7083 29.4375 69.3906C28.707 68.0586 28.3418 66.4401 28.3418 64.5352C28.3418 63.2891 28.5423 62.1504 28.9434 61.1191C29.3444 60.0736 29.9102 59.1641 30.6406 58.3906C31.3854 57.6172 32.2663 57.0228 33.2832 56.6074C34.3001 56.1777 35.4245 55.9629 36.6562 55.9629C38.2747 55.9629 39.7142 56.3353 40.9746 57.0801C42.235 57.8105 43.2233 58.8203 43.9395 60.1094C44.6699 61.3984 45.0352 62.8737 45.0352 64.5352ZM41.2539 64.4492C41.2539 63.2891 41.0605 62.265 40.6738 61.377C40.3014 60.4746 39.7715 59.7728 39.084 59.2715C38.3965 58.7702 37.5872 58.5195 36.6562 58.5195C35.7109 58.5195 34.9017 58.7702 34.2285 59.2715C33.5553 59.7728 33.0326 60.4746 32.6602 61.377C32.3021 62.265 32.123 63.2891 32.123 64.4492C32.123 65.6523 32.3021 66.6836 32.6602 67.543C33.0182 68.388 33.5339 69.0397 34.207 69.498C34.8945 69.9421 35.7253 70.1641 36.6992 70.1641C37.6589 70.1641 38.4753 69.9421 39.1484 69.498C39.8359 69.0397 40.3587 68.388 40.7168 67.543C41.0749 66.6836 41.2539 65.6523 41.2539 64.4492ZM44.4551 49.8613C44.4551 51.3796 44.1185 52.7474 43.4453 53.9648C42.7721 55.1823 41.8483 56.1419 40.6738 56.8438C39.5137 57.5456 38.1888 57.8965 36.6992 57.8965C35.181 57.8965 33.8346 57.5456 32.6602 56.8438C31.4857 56.1419 30.569 55.1823 29.9102 53.9648C29.2513 52.7474 28.9219 51.3796 28.9219 49.8613C28.9219 48.0423 29.2513 46.4954 29.9102 45.2207C30.5833 43.946 31.5072 42.972 32.6816 42.2988C33.8561 41.6257 35.1953 41.2891 36.6992 41.2891C38.2174 41.2891 39.5566 41.6257 40.7168 42.2988C41.877 42.972 42.7865 43.946 43.4453 45.2207C44.1185 46.4954 44.4551 48.0423 44.4551 49.8613ZM40.6523 49.9258C40.6523 48.8802 40.4876 47.9564 40.1582 47.1543C39.8431 46.3522 39.3848 45.722 38.7832 45.2637C38.196 44.791 37.5013 44.5547 36.6992 44.5547C35.8971 44.5547 35.1953 44.7767 34.5938 45.2207C34.0065 45.6504 33.5482 46.2663 33.2188 47.0684C32.8893 47.8704 32.7246 48.8229 32.7246 49.9258C32.7246 51 32.8822 51.9382 33.1973 52.7402C33.5267 53.5423 33.9922 54.1654 34.5938 54.6094C35.1953 55.0534 35.8971 55.2754 36.6992 55.2754C37.5013 55.2754 38.196 55.0534 38.7832 54.6094C39.3848 54.1654 39.8431 53.5423 40.1582 52.7402C40.4876 51.9382 40.6523 51 40.6523 49.9258Z" fill="white"/>
</g>
</svg>
