<svg width="56" height="84" viewBox="0 0 56 84" fill="none" xmlns="http://www.w3.org/2000/svg">


<g id="5D">
<rect width="56" height="84" rx="4" fill="#BF901D"/>
<path d="M14.5286 8.88359C14.2857 8.50544 13.7267 8.50544 13.4838 8.88359C12.4142 10.549 11.2271 12.1378 9.946 13.6468C9.75257 13.8747 9.75267 14.2096 9.9465 14.4372C11.2251 15.938 12.4221 17.5163 13.4766 19.1832C13.7205 19.5688 14.2919 19.5688 14.5358 19.1832C15.5903 17.5163 16.7873 15.938 18.0659 14.4372C18.2597 14.2096 18.2598 13.8747 18.0664 13.6468C16.7853 12.1378 15.5982 10.549 14.5286 8.88359Z" fill="white"/>
<path d="M33.3689 58.1113L30.3396 57.2949L31.6716 41.7188H45.2927V45.3926H34.8728L34.1423 53.9004C34.6293 53.571 35.2166 53.263 35.9041 52.9766C36.5916 52.6901 37.3936 52.5469 38.3103 52.5469C39.5421 52.5469 40.6378 52.7975 41.5974 53.2988C42.5714 53.7858 43.3949 54.4876 44.0681 55.4043C44.7413 56.321 45.2569 57.4238 45.615 58.7129C45.9731 60.002 46.1521 61.4414 46.1521 63.0313C46.1521 64.5352 45.9731 65.9173 45.615 67.1777C45.2712 68.4382 44.7413 69.541 44.0251 70.4863C43.3233 71.4173 42.4353 72.1406 41.3611 72.6563C40.3012 73.1719 39.0623 73.4297 37.6443 73.4297C36.5844 73.4297 35.5818 73.2578 34.6365 72.9141C33.6912 72.556 32.8389 72.0189 32.0798 71.3027C31.335 70.5723 30.7263 69.6699 30.2537 68.5957C29.781 67.5072 29.4874 66.2324 29.3728 64.7715H32.9607C33.1039 65.946 33.3761 66.9342 33.7771 67.7363C34.1925 68.5384 34.7224 69.1471 35.3669 69.5625C36.0258 69.9635 36.7849 70.1641 37.6443 70.1641C38.3748 70.1641 39.0336 69.9994 39.6208 69.6699C40.2081 69.3405 40.7022 68.8678 41.1033 68.252C41.5043 67.6361 41.8123 66.8913 42.0271 66.0176C42.2419 65.1439 42.3494 64.1628 42.3494 63.0742C42.3494 62.0859 42.2419 61.1693 42.0271 60.3242C41.8123 59.4792 41.49 58.7415 41.0603 58.1113C40.6306 57.4811 40.1078 56.9941 39.4919 56.6504C38.8904 56.2923 38.1886 56.1133 37.3865 56.1133C36.3123 56.1133 35.5173 56.2923 35.0017 56.6504C34.5004 57.0085 33.9561 57.4954 33.3689 58.1113Z" fill="white"/>
</g>

</svg>
