<svg width="56" height="84" viewBox="0 0 56 84" fill="none" xmlns="http://www.w3.org/2000/svg">


<g id="TD">
<rect width="56" height="84" rx="4" fill="#BF901D"/>
<path d="M14.5286 8.88359C14.2857 8.50544 13.7267 8.50544 13.4838 8.88359C12.4142 10.549 11.2271 12.1378 9.946 13.6468C9.75257 13.8747 9.75267 14.2096 9.9465 14.4372C11.2251 15.938 12.4221 17.5163 13.4766 19.1832C13.7205 19.5688 14.2919 19.5688 14.5358 19.1832C15.5903 17.5163 16.7873 15.938 18.0659 14.4372C18.2597 14.2096 18.2598 13.8747 18.0664 13.6468C16.7853 12.1378 15.5982 10.549 14.5286 8.88359Z" fill="white"/>
<path d="M22.5176 41.5469V73H18.7148V46.5098L12.1406 49.4316V45.8438L21.9375 41.5469H22.5176Z" fill="white"/>
<path d="M45.0564 54.8672V59.6367C45.0564 62.2005 44.8559 64.3633 44.4548 66.125C44.0681 67.8867 43.5095 69.3047 42.7791 70.3789C42.0486 71.4531 41.1677 72.2337 40.1365 72.7207C39.1196 73.1934 37.9737 73.4297 36.699 73.4297C35.6964 73.4297 34.7582 73.2793 33.8845 72.9785C33.0252 72.6777 32.2517 72.1979 31.5642 71.5391C30.8767 70.8659 30.2895 69.9922 29.8025 68.918C29.3155 67.8438 28.9431 66.5404 28.6853 65.0078C28.4275 63.4753 28.2986 61.6849 28.2986 59.6367V54.8672C28.2986 52.3034 28.4991 50.1549 28.9002 48.4219C29.3012 46.6888 29.867 45.2995 30.5974 44.2539C31.3422 43.194 32.2231 42.4349 33.24 41.9766C34.2712 41.5182 35.4171 41.2891 36.6775 41.2891C37.6944 41.2891 38.6326 41.4395 39.492 41.7402C40.3657 42.0267 41.1391 42.4922 41.8123 43.1367C42.4998 43.7669 43.087 44.612 43.574 45.6719C44.061 46.7174 44.4262 47.9993 44.6697 49.5176C44.9275 51.0358 45.0564 52.819 45.0564 54.8672ZM41.2752 60.2812V54.2012C41.2752 52.7975 41.2107 51.5658 41.0818 50.5059C40.9529 49.4316 40.7667 48.515 40.5232 47.7559C40.2797 46.9967 39.9646 46.3809 39.5779 45.9082C39.2055 45.4355 38.7758 45.0918 38.2888 44.877C37.8018 44.6478 37.2647 44.5332 36.6775 44.5332C35.947 44.5332 35.2953 44.7122 34.7224 45.0703C34.1638 45.4141 33.684 45.9655 33.283 46.7246C32.8962 47.4837 32.6026 48.4792 32.4021 49.7109C32.2016 50.9427 32.1013 52.4395 32.1013 54.2012V60.2812C32.1013 61.6849 32.1658 62.9238 32.2947 63.998C32.4379 65.0723 32.6313 66.0033 32.8748 66.791C33.1326 67.5645 33.4477 68.2018 33.8201 68.7031C34.1925 69.2044 34.6222 69.5768 35.1091 69.8203C35.5961 70.0495 36.1261 70.1641 36.699 70.1641C37.4581 70.1641 38.117 69.9779 38.6755 69.6055C39.2485 69.2331 39.7283 68.653 40.115 67.8652C40.5017 67.0632 40.7882 66.0391 40.9744 64.793C41.1749 63.5326 41.2752 62.0286 41.2752 60.2812Z" fill="white"/>
</g>
</svg>
