<svg width="56" height="84" viewBox="0 0 56 84" fill="none" xmlns="http://www.w3.org/2000/svg">


<g id="9H">
<rect width="56" height="84" rx="4" fill="#972438"/>
<path d="M14.4456 18.6362C14.3244 18.9188 13.8347 18.9167 13.7164 18.6329C13.6038 18.3631 13.477 18.1011 13.3358 17.847C13.0151 17.2697 12.3946 16.3731 11.4743 15.1572C10.7994 14.2647 10.3838 13.6986 10.2276 13.4588C9.97107 13.0683 9.78561 12.71 9.67127 12.3837C9.55693 12.0574 9.49976 11.7269 9.49976 11.3922C9.49976 10.7731 9.70613 10.2544 10.1189 9.83605C10.5316 9.41774 11.042 9.20857 11.65 9.20856C12.2635 9.20857 12.7962 9.4261 13.248 9.86115C13.4091 10.0144 13.5559 10.2033 13.6882 10.4278C13.8378 10.6815 14.2955 10.6742 14.4409 10.4182C14.5628 10.2036 14.7006 10.0207 14.8543 9.86952C15.3173 9.42331 15.8527 9.2002 16.4607 9.2002C17.0631 9.2002 17.5735 9.40797 17.9918 9.8235C18.4101 10.239 18.6193 10.7341 18.6193 11.3086C18.6193 11.8106 18.4966 12.3335 18.2511 12.8773C18.0057 13.4211 17.5316 14.1337 16.8288 15.0149C15.9141 16.1695 15.2476 17.1177 14.8292 17.8596C14.6867 18.1132 14.5588 18.3721 14.4456 18.6362Z" fill="white"/>
<path d="M31.7795 69.6699H32.0803C34.0139 69.6699 35.568 69.3477 36.7424 68.7031C37.9169 68.0586 38.7978 67.1921 39.385 66.1035C39.9866 65.015 40.3876 63.7904 40.5881 62.4297C40.803 61.0547 40.9104 59.6439 40.9104 58.1973V53.4062C40.9104 51.9883 40.7743 50.7279 40.5022 49.625C40.2444 48.5221 39.8935 47.5983 39.4495 46.8535C39.0198 46.1087 38.5256 45.543 37.967 45.1562C37.4228 44.7695 36.8642 44.5762 36.2913 44.5762C35.5608 44.5762 34.9163 44.7624 34.3577 45.1348C33.7991 45.4928 33.3264 46.0013 32.9397 46.6602C32.5673 47.319 32.2808 48.0924 32.0803 48.9805C31.8798 49.8685 31.7795 50.8353 31.7795 51.8809C31.7795 52.8118 31.8655 53.7142 32.0374 54.5879C32.2092 55.4616 32.4742 56.2493 32.8323 56.9512C33.2047 57.653 33.663 58.2116 34.2073 58.627C34.7659 59.028 35.4247 59.2285 36.1838 59.2285C36.814 59.2285 37.4228 59.0566 38.01 58.7129C38.6116 58.3548 39.1558 57.875 39.6428 57.2734C40.1298 56.6576 40.5308 55.9629 40.8459 55.1895C41.1611 54.416 41.3472 53.6068 41.4045 52.7617H43.1877C43.1877 53.9505 42.9944 55.125 42.6077 56.2852C42.2353 57.431 41.6982 58.4766 40.9963 59.4219C40.3088 60.3672 39.4996 61.1263 38.5686 61.6992C37.6519 62.2578 36.6422 62.5371 35.5393 62.5371C34.2073 62.5371 33.0686 62.2363 32.1233 61.6348C31.178 61.0332 30.4045 60.2311 29.803 59.2285C29.2157 58.2259 28.7789 57.1087 28.4924 55.877C28.206 54.6309 28.0627 53.3704 28.0627 52.0957C28.0627 50.6061 28.2346 49.2096 28.5784 47.9062C28.9221 46.6029 29.4306 45.457 30.1038 44.4687C30.7913 43.4661 31.6506 42.6855 32.6819 42.127C33.7131 41.5684 34.9163 41.2891 36.2913 41.2891C37.8238 41.2891 39.1272 41.6471 40.2014 42.3633C41.2756 43.0794 42.1422 44.0391 42.801 45.2422C43.4599 46.4453 43.9397 47.7988 44.2405 49.3027C44.5413 50.8066 44.6917 52.3535 44.6917 53.9434V55.3828C44.6917 57.0013 44.6129 58.6484 44.4553 60.3242C44.3121 61.9857 44.0042 63.5755 43.5315 65.0937C43.0732 66.612 42.3857 67.9727 41.469 69.1758C40.5523 70.3646 39.3277 71.3099 37.7952 72.0117C36.2769 72.6992 34.372 73.043 32.0803 73.043H31.801L31.7795 69.6699Z" fill="white"/>
</g>
</svg>
