<svg width="56" height="84" viewBox="0 0 56 84" fill="none" xmlns="http://www.w3.org/2000/svg">

<g id="3H">
<rect width="56" height="84" rx="4" fill="#972438"/>
<path d="M14.4456 18.6362C14.3244 18.9188 13.8347 18.9167 13.7164 18.6329C13.6038 18.3631 13.477 18.1011 13.3358 17.847C13.0151 17.2697 12.3946 16.3731 11.4743 15.1572C10.7994 14.2647 10.3838 13.6986 10.2276 13.4588C9.97107 13.0683 9.78561 12.71 9.67127 12.3837C9.55693 12.0574 9.49976 11.7269 9.49976 11.3922C9.49976 10.7731 9.70613 10.2544 10.1189 9.83605C10.5316 9.41774 11.042 9.20857 11.65 9.20856C12.2635 9.20857 12.7962 9.4261 13.248 9.86115C13.4091 10.0144 13.5559 10.2033 13.6882 10.4278C13.8378 10.6815 14.2955 10.6742 14.4409 10.4182C14.5628 10.2036 14.7006 10.0207 14.8543 9.86952C15.3173 9.42331 15.8527 9.2002 16.4607 9.2002C17.0631 9.2002 17.5735 9.40797 17.9918 9.8235C18.4101 10.239 18.6193 10.7341 18.6193 11.3086C18.6193 11.8106 18.4966 12.3335 18.2511 12.8773C18.0057 13.4211 17.5316 14.1337 16.8288 15.0149C15.9141 16.1695 15.2476 17.1177 14.8292 17.8596C14.6867 18.1132 14.5588 18.3721 14.4456 18.6362Z" fill="white"/>
<path d="M33.6487 55.4043H36.0979C37.1864 55.4043 38.0888 55.1751 38.8049 54.7168C39.5211 54.2441 40.051 53.6068 40.3948 52.8047C40.7528 51.9883 40.9319 51.0716 40.9319 50.0547C40.9319 48.8516 40.7743 47.8418 40.4592 47.0254C40.1441 46.209 39.6715 45.5931 39.0413 45.1777C38.4254 44.7624 37.6448 44.5547 36.6995 44.5547C35.8114 44.5547 35.038 44.7767 34.3792 45.2207C33.7203 45.6504 33.2118 46.2663 32.8538 47.0684C32.4957 47.8704 32.3167 48.8158 32.3167 49.9043H28.5354C28.5354 48.3145 28.8648 46.8678 29.5237 45.5645C30.1969 44.2611 31.1422 43.2227 32.3596 42.4492C33.5914 41.6758 35.038 41.2891 36.6995 41.2891C38.2893 41.2891 39.6858 41.6257 40.8889 42.2988C42.092 42.9577 43.0302 43.946 43.7034 45.2637C44.3909 46.5671 44.7346 48.1927 44.7346 50.1406C44.7346 50.9284 44.5842 51.7734 44.2834 52.6758C43.997 53.5638 43.5315 54.3945 42.887 55.168C42.2568 55.9414 41.426 56.5788 40.3948 57.0801C39.3778 57.5671 38.1318 57.8105 36.6565 57.8105H33.6487V55.4043ZM33.6487 58.6699V56.2852H36.6565C38.4039 56.2852 39.829 56.5215 40.9319 56.9941C42.0348 57.4668 42.887 58.097 43.4885 58.8848C44.0901 59.6725 44.5055 60.5391 44.7346 61.4844C44.9781 62.4154 45.0999 63.3464 45.0999 64.2773C45.0999 65.7383 44.885 67.0345 44.4553 68.166C44.04 69.2975 43.4456 70.2572 42.6721 71.0449C41.913 71.8327 41.025 72.4271 40.0081 72.8281C38.9911 73.2292 37.8811 73.4297 36.678 73.4297C35.5035 73.4297 34.415 73.2363 33.4124 72.8496C32.4097 72.4629 31.5289 71.9043 30.7698 71.1738C30.0107 70.429 29.4163 69.5195 28.9866 68.4453C28.5712 67.3568 28.3635 66.1178 28.3635 64.7285H32.1663C32.1663 65.8171 32.3453 66.7695 32.7034 67.5859C33.0614 68.4023 33.5771 69.0397 34.2502 69.498C34.9234 69.9421 35.7327 70.1641 36.678 70.1641C37.6233 70.1641 38.4397 69.9564 39.1272 69.541C39.8147 69.1113 40.3446 68.4668 40.717 67.6074C41.1038 66.748 41.2971 65.6667 41.2971 64.3633C41.2971 63.0599 41.0823 61.9928 40.6526 61.1621C40.2372 60.3171 39.6428 59.694 38.8694 59.293C38.0959 58.8776 37.1721 58.6699 36.0979 58.6699H33.6487Z" fill="white"/>
</g>

</svg>
